# Made in Blockbench 4.9.4
mtllib crusher_no_rotor.mtl

o io_left
v 2 3 2
v 2 3 1
v 2 2 2
v 2 2 1
v 1.5 3 1
v 1.5 3 2
v 1.5 2 1
v 1.5 2 2
vt 0.375 0.5
vt 0.375 0.5625
vt 0.5 0.5625
vt 0.5 0.5
vt 0.21875 0.8125
vt 0.34375 0.8125
vt 0.34375 0.6875
vt 0.21875 0.6875
vt 0.375 0.5625
vt 0.375 0.5
vt 0.5 0.5
vt 0.5 0.5625
vt 0.21875 0.8125
vt 0.34375 0.8125
vt 0.34375 0.6875
vt 0.21875 0.6875
vt 0.375 0.53125
vt 0.375 0.59375
vt 0.5 0.59375
vt 0.5 0.53125
vt 0.21875 0.625
vt 0.21875 0.6875
vt 0.34375 0.6875
vt 0.34375 0.625
vn 0 0 -1
vn 1 0 0
vn 0 0 1
vn -1 0 0
vn 0 1 0
vn 0 -1 0
usemtl m_b9678d71-1d3b-ce01-bfc8-d0382c65170c
f 4/4/1 7/3/1 5/2/1 2/1/1
f 3/8/2 4/7/2 2/6/2 1/5/2
f 8/12/3 3/11/3 1/10/3 6/9/3
f 7/16/4 8/15/4 6/14/4 5/13/4
f 6/20/5 1/19/5 2/18/5 5/17/5
f 7/24/6 4/23/6 3/22/6 8/21/6
o io_right
v -0.5 3 2
v -0.5 3 1
v -0.5 2 2
v -0.5 2 1
v -1 3 1
v -1 3 2
v -1 2 1
v -1 2 2
vt 0.375 0.5625
vt 0.375 0.5
vt 0.5 0.5
vt 0.5 0.5625
vt 0.21875 0.8125
vt 0.34375 0.8125
vt 0.34375 0.6875
vt 0.21875 0.6875
vt 0.375 0.5
vt 0.375 0.5625
vt 0.5 0.5625
vt 0.5 0.5
vt 0.21875 0.8125
vt 0.34375 0.8125
vt 0.34375 0.6875
vt 0.21875 0.6875
vt 0.375 0.53125
vt 0.375 0.59375
vt 0.5 0.59375
vt 0.5 0.53125
vt 0.34375 0.6875
vt 0.34375 0.625
vt 0.21875 0.625
vt 0.21875 0.6875
vn 0 0 -1
vn 1 0 0
vn 0 0 1
vn -1 0 0
vn 0 1 0
vn 0 -1 0
usemtl m_b9678d71-1d3b-ce01-bfc8-d0382c65170c
f 12/28/7 15/27/7 13/26/7 10/25/7
f 11/32/8 12/31/8 10/30/8 9/29/8
f 16/36/9 11/35/9 9/34/9 14/33/9
f 15/40/10 16/39/10 14/38/10 13/37/10
f 14/44/11 9/43/11 10/42/11 13/41/11
f 15/48/12 12/47/12 11/46/12 16/45/12
o basin2
v 1.875 2.875 2.875
v 1.875 2.875 0.125
v -0.875 2.875 2.875
v -0.875 2.875 0.125
v 1.53125 2.875 2.53125
v 1.53125 2.875 0.46875
v -0.53125 2.875 2.53125
v -0.53125 2.875 0.46875
v 1.53125 2.328125 2.53125
v 1.53125 2.328125 0.46875
v -0.53125 2.328125 2.53125
v -0.53125 2.328125 0.46875
v 1.875 2.25 2.875
v 1.875 2.25 0.125
v -0.875 2.25 2.875
v -0.875 2.25 0.125
vt 0.04296875 0.625
vt 0.30078125 0.625
vt 0.34375 0.58203125
vt 0 0.58203125
vt 0.04296875 0.625
vt 0.30078125 0.625
vt 0.34375 0.58203125
vt 0 0.58203125
vt 0.04296875 0.625
vt 0.30078125 0.625
vt 0.34375 0.58203125
vt 0 0.58203125
vt 0.04296875 0.625
vt 0.30078125 0.625
vt 0.34375 0.58203125
vt 0 0.58203125
vt 0.0390625 0.5078125
vt 0.296875 0.5078125
vt 0.296875 0.578125
vt 0.0390625 0.578125
vt 0.0390625 0.5078125
vt 0.296875 0.5078125
vt 0.296875 0.578125
vt 0.0390625 0.578125
vt 0.0390625 0.5078125
vt 0.296875 0.5078125
vt 0.296875 0.578125
vt 0.0390625 0.578125
vt 0.0390625 0.5078125
vt 0.296875 0.5078125
vt 0.296875 0.578125
vt 0.0390625 0.578125
vt 0.34375 0.578125
vt 0 0.578125
vt 0 0.5
vt 0.34375 0.5
vt 0.34375 0.5
vt 0.34375 0.578125
vt 0 0.578125
vt 0 0.5
vt 0.34375 0.5
vt 0.34375 0.578125
vt 0 0.578125
vt 0 0.5
vt 0.34375 0.578125
vt 0 0.578125
vt 0 0.5
vt 0.34375 0.5
vt 0.375 0.75
vt 0.5 0.75
vt 0.5 0.875
vt 0.375 0.875
vt 0.375 0.75
vt 0.5 0.75
vt 0.5 0.875
vt 0.375 0.875
vn 0 1 0
vn 0 1 0
vn 0 1 0
vn 0 1 0
vn 0 0 -1
vn -1 0 0
vn 0 0 1
vn 1 0 0
vn 1 0 0
vn -1 0 0
vn 0 0 1
vn 0 0 -1
vn 0 1 0
vn 0 -1 0
usemtl m_b9678d71-1d3b-ce01-bfc8-d0382c65170c
f 21/49/13 23/50/13 19/51/13 17/52/13
f 22/53/14 21/54/14 17/55/14 18/56/14
f 24/57/15 22/58/15 18/59/15 20/60/15
f 23/61/16 24/62/16 20/63/16 19/64/16
f 25/65/17 27/66/17 23/67/17 21/68/17
f 26/69/18 25/70/18 21/71/18 22/72/18
f 28/73/19 26/74/19 22/75/19 24/76/19
f 27/77/20 28/78/20 24/79/20 23/80/20
f 18/81/21 17/82/21 29/83/21 30/84/21
f 31/85/22 19/86/22 20/87/22 32/88/22
f 29/89/23 17/90/23 19/91/23 31/92/23
f 20/93/24 18/94/24 30/95/24 32/96/24
f 27/97/25 25/98/25 26/99/25 28/100/25
f 32/101/26 30/102/26 29/103/26 31/104/26
o body
v 1.75 2.25 2.75
v 1.75 2.25 0.25
v 1.75 0.5 2.75
v 1.75 0.5 0.25
v -0.75 2.25 2.75
v -0.75 2.25 0.25
v -0.75 0.5 2.75
v -0.75 0.5 0.25
v 1 2.25 0.25
v 1 0.5 0.25
v 1 0.5 2.75
v 1 2.25 2.75
v 0 2.25 0.25
v 0 0.5 0.25
v 0 0.5 2.75
v 0 2.25 2.75
v -0.75 2.25 1
v -0.75 0.5 1
v 1.75 0.5 1
v 1.75 2.25 1
v -0.75 2.25 2
v -0.75 0.5 2
v 1.75 0.5 2
v 1.75 2.25 2
v 0 1.75 0.6875
v 1 1.75 0.6875
v 1.25 1.75 1
v 1.25 0.5 2
v 1.25 1.75 2
v 1.25 0.5 1
v -0.25 0.5 1
v -0.25 1.75 2
v -0.25 0.5 2
v -0.25 1.75 1
v 1 1.75 2.25
v 0 0.5 2.25
v 0 1.75 2.25
v 1 0.5 2.25
v 0 1 0.6875
v 1 1 0.6875
vt 0.09375 0.9375
vt 0 0.9375
vt 0 0.71875
vt 0.09375 0.71875
vt 0 0.71875
vt 0.09375 0.71875
vt 0.09375 0.9375
vt 0 0.9375
vt 0.09375 0.9375
vt 0 0.9375
vt 0 0.71875
vt 0.09375 0.71875
vt 0 0.71875
vt 0.09375 0.71875
vt 0.09375 0.9375
vt 0 0.9375
vt 0.09375 0.9375
vt 0 0.9375
vt 0 0.71875
vt 0.09375 0.71875
vt 0 0.71875
vt 0.09375 0.71875
vt 0.09375 0.9375
vt 0 0.9375
vt 0.09375 0.78125
vt 0.21875 0.78125
vt 0.21875 0.9375
vt 0.09375 0.9375
vt 0.21875 0.9375
vt 0.09375 0.9375
vt 0.09375 0.78125
vt 0.21875 0.78125
vt 0.09375 0.9375
vt 0 0.9375
vt 0 0.71875
vt 0.09375 0.71875
vt 0 0.71875
vt 0.09375 0.71875
vt 0.09375 0.9375
vt 0 0.9375
vt 0.0625 0.71875
vt 0.0625 0.875
vt 0 0.9375
vt 0 0.71875
vt 0.03125 0.875
vt 0.03125 0.71875
vt 0.09375 0.71875
vt 0.09375 0.9375
vt 0.03125 0.875
vt 0.03125 0.71875
vt 0.09375 0.71875
vt 0.09375 0.9375
vt 0.0625 0.71875
vt 0.0625 0.875
vt 0 0.9375
vt 0 0.71875
vt 0.0625 0.71875
vt 0.0625 0.875
vt 0 0.9375
vt 0 0.71875
vt 0.03125 0.875
vt 0.03125 0.71875
vt 0.09375 0.71875
vt 0.09375 0.9375
vt 0.09375 0.76070234375
vt 0.21875 0.76070234375
vt 0.21875 0.84375
vt 0.09375 0.84375
vt 0.09375 0.76070234375
vt 0.21875 0.76070234375
vt 0.21875 0.84375
vt 0.09375 0.84375
vt 0.09375 0.76070234375
vt 0.21875 0.76070234375
vt 0.21875 0.84375
vt 0.09375 0.84375
vt 0.0390625 0.875
vt 0.0390625 0.78125
vt 0.09375 0.71875
vt 0.09375 0.9375
vt 0.0546875 0.78125
vt 0.0546875 0.875
vt 0 0.9375
vt 0 0.71875
vt 0.09375 0.84375
vt 0.21875 0.84375
vt 0.21875 0.9375
vt 0.09375 0.9375
vt 0.21875 0.9375
vt 0.09375 0.9375
vt 0.09375 0.78125
vt 0.21875 0.78125
vt 0.09375 0.76070234375
vt 0.21875 0.76070234375
vt 0.21875 0.84375
vt 0.09375 0.84375
vn 1 0 0
vn -1 0 0
vn 0 0 1
vn 0 0 -1
vn 0 0 -1
vn 0 0 1
vn -1 0 0
vn 1 0 0
vn -1 0 0
vn 1 0 0
vn 0 0 -1
vn 0 0 1
vn 0 0 -1
vn 0 0 1
vn 1 0 0
vn -1 0 0
vn 0.7071067811865476 -0.7071067811865476 0
vn -0.7071067811865476 -0.7071067811865476 0
vn 0 -0.658504607868518 -0.7525766947068778
vn 1 0 0
vn -1 0 0
vn 0 0 -1
vn 0 0 1
vn 0 -0.7071067811865476 0.7071067811865476
usemtl m_b9678d71-1d3b-ce01-bfc8-d0382c65170c
f 34/105/27 52/106/27 51/107/27 36/108/27
f 40/109/28 50/110/28 49/111/28 38/112/28
f 33/113/29 44/114/29 43/115/29 35/116/29
f 36/117/30 42/118/30 41/119/30 34/120/30
f 38/121/31 45/122/31 46/123/31 40/124/31
f 39/125/32 47/126/32 48/127/32 37/128/32
f 63/129/33 65/130/33 64/131/33 66/132/33
f 59/133/34 61/134/34 60/135/34 62/136/34
f 37/137/35 53/138/35 54/139/35 39/140/35
f 35/141/36 55/142/36 56/143/36 33/144/36
f 60/145/37 61/146/37 56/147/37 55/148/37
f 59/149/38 62/150/38 51/151/38 52/152/38
f 64/153/39 65/154/39 54/155/39 53/156/39
f 63/157/40 66/158/40 49/159/40 50/160/40
f 68/161/41 69/162/41 48/163/41 47/164/41
f 67/165/42 70/166/42 43/167/42 44/168/42
f 61/169/43 59/170/43 52/171/43 56/172/43
f 66/173/44 64/174/44 53/175/44 49/176/44
f 58/177/45 57/178/45 45/179/45 41/180/45
f 57/181/46 71/182/46 46/183/46 45/184/46
f 72/185/47 58/186/47 41/187/47 42/188/47
f 72/189/48 71/190/48 57/191/48 58/192/48
f 67/193/49 69/194/49 68/195/49 70/196/49
f 69/197/50 67/198/50 44/199/50 48/200/50
o base
v 0 0.9999375 1
v 0 0.9999375 0.0000625
v 0 0 0.0000625
v 1 0.9999375 1
v 1 0.9999375 0.0000625
v 1 0 0.0000625
v 0 0.5 0.0000625
v 1 0.5 0.0000625
v -1 0.5 0
v -1 0 0
v 2 0 0
v 2 0.5 0
v 0 0.5 1
v 1 0.5 1
v -1 0 1
v -1 0.5 1
v 2 0.5 1
v 2 0 1
v -1 0.5 3
v -1 0 3
v 0 0 3
v 0 0.5 3
v 1 0 3
v 1 0.5 3
v 2 0 3
v 2 0.5 3
v 0 0.5 2
v -1 0.5 2
v -1 0 2
v 2 0 2
v 2 0.5 2
v 1 0.5 2
v -0.5 1 1
v 0 1 2
v -0.5 1 2
v 0 1 1
v 1 1 2.5
v 1 1 2
v 0 1 2
v 0 1 2.5
v 1 1 1
v 1.5 1 2
v 1 1 2
v 1.5 1 1
v 1 -1 0
v 0 -1 0
v 2 -1 0
v 2 -1 1
v 2 -1 2
v 0 -1 3
v 1 -1 3
v -1 -1 3
v -1 -1 2
v -1 -1 1
v -1 -1 0
v 2 -1 3
v 1 -1 1
v 0 -1 1
v 1 -1 2
v 0 -1 2
v -0.5 1 2
v -0.5 1 1
v -1 0.5 1
v -1 0.5 2
vt 0 0.5
vt 0 0.4375
vt 0.125 0.4375
vt 0.125 0.5
vt 0 0.5
vt 0 0.4375
vt 0.125 0.4375
vt 0.125 0.5
vt 0.5 0.875
vt 0.625 0.875
vt 0.625 1
vt 0.5 1
vt 0.5 0.875
vt 0.5 0.8125
vt 0.625 0.8125
vt 0.625 0.875
vt 0 1
vt 0 0.875
vt 0.25 0.875
vt 0.25 1
vt 0.125 0.9375
vt 0.125 1
vt 0 1
vt 0 0.9375
vt 0.625 0.75
vt 0.625 0.8125
vt 0.5 0.8125
vt 0.5 0.75
vt 0.125 0.9375
vt 0.125 1
vt 0 1
vt 0 0.9375
vt 0.375 1
vt 0.375 0.875
vt 0.5 0.875
vt 0.5 1
vt 0.125 0.9375
vt 0.125 1
vt 0 1
vt 0 0.9375
vt 0 1
vt 0 0.9375
vt 0.125 0.9375
vt 0.125 1
vt 0.5 0.875
vt 0.5 1
vt 0.375 1
vt 0.375 0.875
vt 0.375 0.4375
vt 0.375 0.5
vt 0.25 0.5
vt 0.25 0.4375
vt 0 1
vt 0 0.9375
vt 0.125 0.9375
vt 0.125 1
vt 0.125 0.9375
vt 0.125 1
vt 0 1
vt 0 0.9375
vt 0.25 0.4375
vt 0.375 0.4375
vt 0.375 0.5
vt 0.25 0.5
vt 0.375 1
vt 0.375 0.875
vt 0.5 0.875
vt 0.5 1
vt 0.375 0.5
vt 0.25 0.5
vt 0.25 0.4375
vt 0.375 0.4375
vt 0.375 1
vt 0.375 0.875
vt 0.5 0.875
vt 0.5 1
vt 0.5 0.875
vt 0.5 1
vt 0.375 1
vt 0.375 0.875
vt 0.125 1
vt 0 1
vt 0 0.9375
vt 0.125 0.9375
vt 0 0.9375
vt 0.125 0.9375
vt 0.125 1
vt 0 1
vt 0.5 0.875
vt 0.5 1
vt 0.375 1
vt 0.375 0.875
vt 0.5 0.875
vt 0.5 1
vt 0.375 1
vt 0.375 0.875
vt 0.21875 0.84375
vt 0.09375 0.84375
vt 0.09375 0.78125
vt 0.21875 0.78125
vt 0.5 1
vt 0.375 1
vt 0.375 0.9375
vt 0.5 0.9375
vt 0.3125 0.96875
vt 0.1875 0.96875
vt 0.1875 0.9609375
vt 0.3125 0.9609375
vt 0.5 1
vt 0.375 1
vt 0.375 0.9375
vt 0.5 0.9375
vt 0.5 1
vt 0.375 1
vt 0.375 0.9375
vt 0.5 0.9375
vt 0.28125 1
vt 0.15625 1
vt 0.15625 0.9921875
vt 0.28125 0.9921875
vt 0.5 1
vt 0.375 1
vt 0.375 0.9375
vt 0.5 0.9375
vt 0.21875 0.84375
vt 0.09375 0.84375
vt 0.09375 0.78125
vt 0.21875 0.78125
vt 0.25 0.96875
vt 0.125 0.96875
vt 0.125 0.9609375
vt 0.25 0.9609375
vt 0.5 1
vt 0.375 1
vt 0.375 0.9375
vt 0.5 0.9375
vt 0.21875 0.84375
vt 0.09375 0.84375
vt 0.09375 0.78125
vt 0.21875 0.78125
vt 0.5 1
vt 0.375 1
vt 0.375 0.9375
vt 0.5 0.9375
vt 0.5 0.625
vt 0.625 0.625
vt 0.625 0.75
vt 0.5 0.75
vt 0 0.375
vt 0.125 0.375
vt 0.125 0.5
vt 0 0.5
vt 0 0.375
vt 0.125 0.375
vt 0.125 0.5
vt 0 0.5
vt 0.21875 0.8125
vt 0.34375 0.8125
vt 0.34375 0.9375
vt 0.21875 0.9375
vt 0.09375 0.6328125
vt 0.21875 0.6328125
vt 0.21875 0.7578125
vt 0.09375 0.7578125
vt 0 0.375
vt 0.125 0.375
vt 0.125 0.5
vt 0 0.5
vt 0 0.375
vt 0.125 0.375
vt 0.125 0.5
vt 0 0.5
vt 0.21875 0.8125
vt 0.34375 0.8125
vt 0.34375 0.9375
vt 0.21875 0.9375
vt 0 0.375
vt 0.125 0.375
vt 0.125 0.5
vt 0 0.5
vt 0 0.375
vt 0.125 0.375
vt 0.125 0.5
vt 0 0.5
vt 0 0.375
vt 0.125 0.375
vt 0.125 0.5
vt 0 0.5
vt 0 0.375
vt 0.125 0.375
vt 0.125 0.5
vt 0 0.5
vt 0.375 0.875
vt 0.375 0.75
vt 0.5 0.75
vt 0.5 0.875
vt 0.375 0.875
vt 0.375 0.75
vt 0.5 0.75
vt 0.5 0.875
vt 0.375 0.875
vt 0.375 0.75
vt 0.5 0.75
vt 0.5 0.875
vt 0.375 0.875
vt 0.375 0.75
vt 0.5 0.75
vt 0.5 0.875
vt 0.375 0.875
vt 0.375 0.75
vt 0.5 0.75
vt 0.5 0.875
vt 0.375 0.875
vt 0.375 0.75
vt 0.5 0.75
vt 0.5 0.875
vt 0.375 0.875
vt 0.375 0.75
vt 0.5 0.75
vt 0.5 0.875
vt 0.375 0.875
vt 0.375 0.75
vt 0.5 0.75
vt 0.5 0.875
vt 0.375 0.875
vt 0.375 0.75
vt 0.5 0.75
vt 0.5 0.875
vt 0.21875 0.84375
vt 0.09375 0.84375
vt 0.09375 0.78125
vt 0.21875 0.78125
vn -1 0 0
vn 1 0 0
vn 0 1 0
vn 0 0 -1
vn 0 0 1
vn -1 0 0
vn 0 0 -1
vn 1 0 0
vn 0 1 0
vn 0.00006249999987792969 0 -0.999999998046875
vn -0.00006249999987792969 0 -0.999999998046875
vn 0 1 0
vn 0 0 1
vn 0 0 1
vn 0 0 1
vn -1 0 0
vn 0 1 0
vn 1 0 0
vn 0 1 0
vn 0 1 0
vn -1 0 0
vn 1 0 0
vn 0 1 0
vn 0 1 0
vn -0.7071067811865476 0.7071067811865476 0
vn 0 0 1
vn 1 0 0
vn 0 0 -1
vn 1 0 0
vn 0 0 -1
vn -1 0 0
vn 0 0.7071067811865476 0.7071067811865476
vn -1 0 0
vn 0 0 1
vn 0.7071067811865476 0.7071067811865476 0
vn 0 0 -1
vn 0 0.00006249999987792969 -0.999999998046875
vn 1 0 0
vn 0 0.00006249999987792969 -0.999999998046875
vn 1 0 0
vn 0 0 1
vn -1 0 0
vn 0 0 1
vn -1 0 0
vn -1 0 0
vn 0 0 -1
vn 1 0 0
vn 0 0 1
vn 0 -1 0
vn 0 -1 0
vn 0 -1 0
vn 0 -1 0
vn 0 -1 0
vn 0 -1 0
vn 0 -1 0
vn 0 -1 0
vn 0 -1 0
vn -0.7071067811865476 0.7071067811865476 0
usemtl m_b9678d71-1d3b-ce01-bfc8-d0382c65170c
f 74/201/51 79/202/51 85/203/51 73/204/51
f 76/205/52 86/206/52 80/207/52 77/208/52
f 73/209/53 76/210/53 77/211/53 74/212/53
f 77/213/54 80/214/54 79/215/54 74/216/54
usemtl none
f 73/217/55 85/218/55 86/219/55 76/220/55
usemtl m_b9678d71-1d3b-ce01-bfc8-d0382c65170c
f 87/221/56 88/222/56 81/223/56 82/224/56
f 75/225/57 79/226/57 80/227/57 78/228/57
f 83/229/58 84/230/58 89/231/58 90/232/58
f 81/233/59 88/234/59 85/235/59 79/236/59
f 82/237/60 81/238/60 79/239/60 75/240/60
f 84/241/61 83/242/61 78/243/61 80/244/61
f 89/245/62 84/246/62 80/247/62 86/248/62
f 95/249/63 96/250/63 94/251/63 93/252/63
f 91/253/64 92/254/64 93/255/64 94/256/64
f 97/257/65 98/258/65 96/259/65 95/260/65
f 87/261/66 101/262/66 100/263/66 88/264/66
f 105/265/67 107/266/67 106/267/67 108/268/67
f 89/269/68 103/270/68 102/271/68 90/272/68
f 113/273/69 115/274/69 114/275/69 116/276/69
f 94/277/70 99/278/70 100/279/70 91/280/70
f 91/281/71 100/282/71 101/283/71 92/284/71
f 97/285/72 102/286/72 103/287/72 98/288/72
f 98/289/73 103/290/73 104/291/73 96/292/73
f 109/293/74 110/294/74 111/295/74 112/296/74
f 107/297/75 105/298/75 88/299/75 100/300/75
f 106/301/76 107/302/76 100/303/76 99/304/76
f 108/305/77 106/306/77 99/307/77 85/308/77
f 105/309/78 108/310/78 85/311/78 88/312/78
f 110/313/79 109/314/79 96/315/79 104/316/79
f 111/317/80 110/318/80 104/319/80 99/320/80
f 112/321/81 111/322/81 99/323/81 94/324/81
f 109/325/82 112/326/82 94/327/82 96/328/82
f 115/329/83 113/330/83 86/331/83 104/332/83
f 114/333/84 115/334/84 104/335/84 103/336/84
f 116/337/85 114/338/85 103/339/85 89/340/85
f 113/341/86 116/342/86 89/343/86 86/344/86
f 117/345/87 118/346/87 75/347/87 78/348/87
f 120/349/88 119/350/88 83/351/88 90/352/88
f 119/353/89 117/354/89 78/355/89 83/356/89
f 121/357/90 120/358/90 90/359/90 102/360/90
f 122/361/91 123/362/91 95/363/91 93/364/91
f 125/365/92 124/366/92 92/367/92 101/368/92
f 124/369/93 122/370/93 93/371/93 92/372/93
f 126/373/94 125/374/94 101/375/94 87/376/94
f 127/377/95 126/378/95 87/379/95 82/380/95
f 118/381/96 127/382/96 82/383/96 75/384/96
f 128/385/97 121/386/97 102/387/97 97/388/97
f 123/389/98 128/390/98 97/391/98 95/392/98
f 117/393/99 129/394/99 130/395/99 118/396/99
f 126/397/100 127/398/100 118/399/100 130/400/100
f 119/401/101 120/402/101 129/403/101 117/404/101
f 130/405/102 132/406/102 125/407/102 126/408/102
f 129/409/103 131/410/103 132/411/103 130/412/103
f 120/413/104 121/414/104 131/415/104 129/416/104
f 124/417/105 125/418/105 132/419/105 122/420/105
f 122/421/106 132/422/106 131/423/106 123/424/106
f 123/425/107 131/426/107 121/427/107 128/428/107
f 133/429/108 134/430/108 135/431/108 136/432/108