# Made in Blockbench 4.9.4
mtllib induction_furnace.mtl

o cylinder
v 0.5 -0.125 1.5
v 0.5 1.875 1.5
v 0.8684301395927936 -0.125 2.875
v 0.8684301395927936 1.875 2.875
v 1.506569860407206 -0.125 2.506569860407206
v 1.506569860407206 1.875 2.506569860407206
v 1.8749999999999998 -0.125 1.8684301395927936
v 1.8749999999999998 1.875 1.8684301395927936
v 1.8749999999999998 -0.125 1.1315698604072062
v 1.8749999999999998 1.875 1.1315698604072062
v 1.5065698604072062 -0.125 0.493430139592794
v 1.5065698604072062 1.875 0.493430139592794
v 0.868430139592794 -0.125 0.12500000000000022
v 0.868430139592794 1.875 0.12500000000000022
v 0.13156986040720692 -0.125 0.125
v 0.13156986040720692 1.875 0.125
v -0.506569860407206 -0.125 0.4934301395927936
v -0.506569860407206 1.875 0.4934301395927936
v -0.8749999999999998 -0.125 1.1315698604072066
v -0.8749999999999998 1.875 1.1315698604072066
v -0.875 -0.125 1.868430139592793
v -0.875 1.875 1.868430139592793
v -0.5065698604072064 -0.125 2.5065698604072058
v -0.5065698604072064 1.875 2.5065698604072058
v 0.13156986040720642 -0.125 2.875
v 0.13156986040720642 1.875 2.875
vt 0.03125 0.453125
vt 0.215465625 0.453125
vt 0.1233578125 0.109375
vt 0.784534375 0
vt 0.96875 0
vt 0.96875 0.5
vt 0.784534375 0.5
vt 0.03125 0.453125
vt 0.215465625 0.453125
vt 0.1233578125 0.109375
vt 0.03125 0.453125
vt 0.215465625 0.453125
vt 0.1233578125 0.109375
vt 0.815784375 0
vt 1 0
vt 1 0.5
vt 0.815784375 0.5
vt 0.03125 0.453125
vt 0.215465625 0.453125
vt 0.1233578125 0.109375
vt 0.03125 0.453125
vt 0.215465625 0.453125
vt 0.1233578125 0.109375
vt 0 0.75
vt 0.184215625 0.75
vt 0.184215625 1
vt 0 1
vt 0.03125 0.453125
vt 0.215465625 0.453125
vt 0.1233578125 0.109375
vt 0.03125 0.453125
vt 0.215465625 0.453125
vt 0.1233578125 0.109375
vt 0.784534375 0
vt 0.96875 0
vt 0.96875 0.5
vt 0.784534375 0.5
vt 0.03125 0.453125
vt 0.215465625 0.453125
vt 0.1233578125 0.109375
vt 0.03125 0.453125
vt 0.215465625 0.453125
vt 0.1233578125 0.109375
vt 0.815784375 0
vt 1 0
vt 1 0.5
vt 0.815784375 0.5
vt 0.03125 0.453125
vt 0.215465625 0.453125
vt 0.1233578125 0.109375
vt 0.03125 0.453125
vt 0.215465625 0.453125
vt 0.1233578125 0.109375
vt 0 0.75
vt 0.184215625 0.75
vt 0.184215625 1
vt 0 1
vt 0.03125 0.453125
vt 0.215465625 0.453125
vt 0.1233578125 0.109375
vt 0.03125 0.453125
vt 0.215465625 0.453125
vt 0.1233578125 0.109375
vt 0.784534375 0
vt 0.96875 0
vt 0.96875 0.5
vt 0.784534375 0.5
vt 0.03125 0.453125
vt 0.215465625 0.453125
vt 0.1233578125 0.109375
vt 0.03125 0.453125
vt 0.215465625 0.453125
vt 0.1233578125 0.109375
vt 0.815784375 0
vt 1 0
vt 1 0.5
vt 0.815784375 0.5
vt 0.03125 0.453125
vt 0.215465625 0.453125
vt 0.1233578125 0.109375
vt 0.03125 0.453125
vt 0.215465625 0.453125
vt 0.1233578125 0.109375
vt 0 0.75
vt 0.184215625 0.75
vt 0.184215625 1
vt 0 1
vt 0.03125 0.453125
vt 0.215465625 0.453125
vt 0.1233578125 0.109375
vt 0.03125 0.453125
vt 0.215465625 0.453125
vt 0.1233578125 0.109375
vt 0.784534375 0
vt 0.96875 0
vt 0.96875 0.5
vt 0.784534375 0.5
vt 0.03125 0.453125
vt 0.215465625 0.453125
vt 0.1233578125 0.109375
vt 0.03125 0.453125
vt 0.215465625 0.453125
vt 0.1233578125 0.109375
vt 0.815784375 0
vt 1 0
vt 1 0.5
vt 0.815784375 0.5
vt 0.03125 0.453125
vt 0.215465625 0.453125
vt 0.1233578125 0.109375
vt 0.03125 0.453125
vt 0.215465625 0.453125
vt 0.1233578125 0.109375
vt 0 0.75
vt 0.184215625 0.75
vt 0.184215625 1
vt 0 1
vt 0.03125 0.453125
vt 0.215465625 0.453125
vt 0.1233578125 0.109375
vn 0 -1 0
vn 0.5000000000000002 0 0.8660254037844386
vn 0 1 0
vn 0 -1 0
vn 0.8660254037844387 0 0.5000000000000001
vn 0 1 0
vn 0 -1 0
vn 1 0 0
vn 0 1 0
vn 0 -1 0
vn 0.8660254037844386 0 -0.5000000000000001
vn 0 1 0
vn 0 -1 0
vn 0.5000000000000003 0 -0.8660254037844385
vn 0 1 0
vn 0 -1 0
vn 3.0133881713700935e-16 0 -1
vn 0 1 0
vn 0 -1 0
vn -0.4999999999999997 0 -0.8660254037844388
vn 0 1 0
vn 0 -1 0
vn -0.8660254037844389 0 -0.4999999999999999
vn 0 1 0
vn 0 -1 0
vn -1 0 -3.013388171370097e-16
vn 0 1 0
vn 0 -1 0
vn -0.8660254037844388 0 0.4999999999999997
vn 0 1 0
vn 0 -1 0
vn -0.5000000000000003 0 0.8660254037844385
vn 0 1 0
vn 0 -1 0
vn 0 0 1
vn 0 1 0
usemtl m_4fe4a857-471c-69b7-9c92-9373dbe958e6
f 5/1/1 3/2/1 1/3/1
f 3/4/2 5/5/2 6/6/2 4/7/2
f 4/8/3 6/9/3 2/10/3
f 7/11/4 5/12/4 1/13/4
f 5/14/5 7/15/5 8/16/5 6/17/5
f 6/18/6 8/19/6 2/20/6
f 9/21/7 7/22/7 1/23/7
usemtl none
f 7/24/8 9/25/8 10/26/8 8/27/8
usemtl m_4fe4a857-471c-69b7-9c92-9373dbe958e6
f 8/28/9 10/29/9 2/30/9
f 11/31/10 9/32/10 1/33/10
f 9/34/11 11/35/11 12/36/11 10/37/11
f 10/38/12 12/39/12 2/40/12
f 13/41/13 11/42/13 1/43/13
f 11/44/14 13/45/14 14/46/14 12/47/14
f 12/48/15 14/49/15 2/50/15
f 15/51/16 13/52/16 1/53/16
usemtl none
f 13/54/17 15/55/17 16/56/17 14/57/17
usemtl m_4fe4a857-471c-69b7-9c92-9373dbe958e6
f 14/58/18 16/59/18 2/60/18
f 17/61/19 15/62/19 1/63/19
f 15/64/20 17/65/20 18/66/20 16/67/20
f 16/68/21 18/69/21 2/70/21
f 19/71/22 17/72/22 1/73/22
f 17/74/23 19/75/23 20/76/23 18/77/23
f 18/78/24 20/79/24 2/80/24
f 21/81/25 19/82/25 1/83/25
usemtl none
f 19/84/26 21/85/26 22/86/26 20/87/26
usemtl m_4fe4a857-471c-69b7-9c92-9373dbe958e6
f 20/88/27 22/89/27 2/90/27
f 23/91/28 21/92/28 1/93/28
f 21/94/29 23/95/29 24/96/29 22/97/29
f 22/98/30 24/99/30 2/100/30
f 25/101/31 23/102/31 1/103/31
f 23/104/32 25/105/32 26/106/32 24/107/32
f 24/108/33 26/109/33 2/110/33
f 3/111/34 25/112/34 1/113/34
usemtl none
f 25/114/35 3/115/35 4/116/35 26/117/35
usemtl m_4fe4a857-471c-69b7-9c92-9373dbe958e6
f 26/118/36 4/119/36 2/120/36
o top
v 1 2 2
v 1 2 1
v 1 1 2
v 1 1 1
v 0 2 2
v 0 2 1
v 0 1 2
v 0 1 1
vt 0.25 1
vt 0 1
vt 0 0.75
vt 0.25 0.75
vt 0.25 0.75
vt 0.25 1
vt 0 1
vt 0 0.75
vt 0 0.75
vt 0.25 0.75
vt 0.25 1
vt 0 1
vt 0.25 0.75
vt 0.25 1
vt 0 1
vt 0 0.75
vt 0.25 1
vt 0 1
vt 0 0.75
vt 0.25 0.75
vn 1 0 0
vn -1 0 0
vn 0 1 0
vn 0 0 1
vn 0 0 -1
usemtl m_4fe4a857-471c-69b7-9c92-9373dbe958e6
f 28/121/37 27/122/37 29/123/37 30/124/37
f 33/125/38 31/126/38 32/127/38 34/128/38
f 31/129/39 27/130/39 28/131/39 32/132/39
f 29/133/40 27/134/40 31/135/40 33/136/40
f 32/137/41 28/138/41 30/139/41 34/140/41
o base
v 2 -0.5 3
v 2 -0.5 0
v 2 -1 3
v 2 -1 0
v -1 -0.5 3
v -1 -0.5 0
v -1 -1 3
v -1 -1 0
v 2 -0.5 1
v 2 -1 1
v 2 -0.5 2
v 2 -1 2
v -1 -1 1
v -1 -1 2
v -1 -0.5 1
v -1 -0.5 2
v 1 -0.5 3
v 0 -0.5 3
v 1 -1 3
v 0 -1 3
v 1 -1 2
v 0 -1 2
v 1 -1 1
v 0 -1 1
v 1 -1 0
v 0 -1 0
v 1 -0.5 0
v 0 -0.5 0
v 1 0 0
v 0 0 0
v -1 0 2
v -1 0 1
v 0 0 3
v 1 0 3
v 2 0 1
v 2 0 2
v -0.5 -0.5 1
v -0.5 -0.5 0
v -0.5 -0.5 3
v -0.5 -0.5 2
v -0.5 0 2
v -0.5 0 1
v -0.5 -0.5 0.5
v -1 -0.5 0.5
v 2 -0.5 0.5
v 1 -0.5 0.5
v 1 0 0.5
v 0 0 0.5
v 0 -0.5 0.5
v 1.5 -0.5 3
v 1.5 -0.5 0
v 1.5 -0.5 0.5
v 1.5 -0.5 1
v 1.5 0 1
v 1.5 0 2
v 1.5 -0.5 2
v 1.5 -0.5 2.5
v 1 -0.5 2.5
v 1 0 2.5
v 0 0 2.5
v 0 -0.5 2.5
v -0.5 -0.5 2.5
v -1 -0.5 2.5
v 0 0 0.5
v -0.5 0 0.5
v -0.5 0 1
v 1.5 0 2.5
v 1 0 2.5
v 1.5 0 2
v -0.5 0 2
v 0 0 2.5
v -0.5 0 2.5
v 1.5 0 0.5
v 1.5 0 1
v 1 0 0.5
v 2 -0.5 2.5
v 0 2 0
v 1 2 0
v 1 2 0.5
v 1.5 2 1
v 2 2 1
v 2 2 2
v 1.5 2 2
v 1 2 2.5
v 1 2 3
v 0 2 3
v 0 2 2.5
v -0.5 2 2
v -1 2 2
v -1 2 1
v -0.5 2 1
v 0 2 0.5
v 0 1 0
v 1 1 0
v 1 1 0.5
v 1.5 1 1
v 2 1 1
v 2 1 2
v 1.5 1 2
v 1 1 2.5
v 1 1 3
v 0 1 3
v 0 1 2.5
v -0.5 1 2
v -1 1 2
v -1 1 1
v -0.5 1 1
v 0 1 0.5
vt 0.5 0.875
vt 0.25 0.875
vt 0.25 0.75
vt 0.5 0.75
vt 0.25 0.75
vt 0.5 0.75
vt 0.5 0.875
vt 0.25 0.875
vt 0.875 1
vt 0.875 0.875
vt 1 0.875
vt 1 1
vt 0.75 0.875
vt 0.5 0.875
vt 0.5 0.75
vt 0.75 0.75
vt 0.25 0
vt 0.25 0.25
vt 0 0.25
vt 0 0
vt 1 0.875
vt 0.875 0.875
vt 0.875 1
vt 1 1
vt 0.5 1
vt 0.25 1
vt 0.25 0.875
vt 0.5 0.875
vt 0.75 1
vt 0.5 1
vt 0.5 0.875
vt 0.75 0.875
vt 0.5 1
vt 0.25 1
vt 0.25 0.875
vt 0.5 0.875
vt 0.75 1
vt 0.75 0.875
vt 0.875 0.875
vt 0.875 1
vt 0.25 0
vt 0.25 0.25
vt 0 0.25
vt 0 0
vt 0.75 0.75
vt 0.75 0.875
vt 0.875 0.875
vt 0.875 0.75
vt 0.25 0.125
vt 0.375 0.125
vt 0.375 0.25
vt 0.25 0.25
vt 0.25 0.25
vt 0.375 0.25
vt 0.375 0.125
vt 0.25 0.125
vt 0.875 0.75
vt 0.875 0.875
vt 0.75 0.875
vt 0.75 0.75
vt 0.25 0.75
vt 0 0.75
vt 0 0.625
vt 0.25 0.625
vt 0 0.625
vt 0.25 0.625
vt 0.25 0.75
vt 0 0.75
vt 0.25 0
vt 0.25 0.25
vt 0 0.25
vt 0 0
vt 0.75 1
vt 0.875 1
vt 0.875 0.875
vt 0.75 0.875
vt 0.75 0.875
vt 0.875 0.875
vt 0.875 0.75
vt 0.75 0.75
vt 0.25 0.125
vt 0.375 0.125
vt 0.375 0.25
vt 0.25 0.25
vt 0.5 0.25
vt 0.375 0.25
vt 0.375 0.125
vt 0.5 0.125
vt 0.25 0.75
vt 0 0.75
vt 0 0.625
vt 0.25 0.625
vt 0.75 1
vt 0.75 0.875
vt 0.875 0.875
vt 0.875 1
vt 0.25 0.125
vt 0.375 0.125
vt 0.375 0.25
vt 0.25 0.25
vt 0.5 0.25
vt 0.375 0.25
vt 0.375 0.125
vt 0.5 0.125
vt 1 1
vt 1 0.875
vt 0.875 0.875
vt 0.875 1
vt 0.875 1
vt 0.875 0.875
vt 0.75 0.875
vt 0.75 1
vt 0 0.625
vt 0.25 0.625
vt 0.25 0.75
vt 0 0.75
vt 0.25 0
vt 0.25 0.25
vt 0 0.25
vt 0 0
vt 0.25 0
vt 0.25 0.25
vt 0 0.25
vt 0 0
vt 0.25 0
vt 0.25 0.25
vt 0 0.25
vt 0 0
vt 0.375 0.75
vt 0.25 0.75
vt 0.25 0.625
vt 0.375 0.625
vt 0.375 0.75
vt 0.25 0.75
vt 0.25 0.625
vt 0.375 0.625
vt 0.375 0.75
vt 0.25 0.75
vt 0.25 0.625
vt 0.375 0.625
vt 0.375 0.75
vt 0.25 0.75
vt 0.25 0.625
vt 0.375 0.625
vt 0.375 0.75
vt 0.25 0.75
vt 0.25 0.625
vt 0.375 0.625
vt 0.375 0.75
vt 0.25 0.75
vt 0.25 0.625
vt 0.375 0.625
vt 0.375 0.75
vt 0.25 0.75
vt 0.25 0.625
vt 0.375 0.625
vt 0.375 0.75
vt 0.25 0.75
vt 0.25 0.625
vt 0.375 0.625
vt 0.25 0.75
vt 0 0.75
vt 0 0.625
vt 0.25 0.625
vt 0.25 0
vt 0.25 0.25
vt 0 0.25
vt 0 0
vt 0.25 0
vt 0.25 0.25
vt 0 0.25
vt 0 0
vt 0.875 0.75
vt 0.875 0.875
vt 0.75 0.875
vt 0.75 0.75
vt 0.875 1
vt 0.875 0.875
vt 1 0.875
vt 1 1
vt 0.25 0.25
vt 0.25 0
vt 0.5 0
vt 0.5 0.25
vt 0.25 0.5
vt 0.25 0.25
vt 0.375 0.25
vt 0.375 0.5
vt 0.375 0.5
vt 0.375 0.25
vt 0.5 0.25
vt 0.5 0.5
vt 0.5 0.5
vt 0.5 0.25
vt 0.75 0.25
vt 0.75 0.5
vt 0.375 0.5
vt 0.375 0.25
vt 0.5 0.25
vt 0.5 0.5
vt 0.375 0.5
vt 0.375 0.25
vt 0.5 0.25
vt 0.5 0.5
vt 0.5 0.5
vt 0.5 0.25
vt 0.75 0.25
vt 0.75 0.5
vt 0.375 0.5
vt 0.375 0.25
vt 0.5 0.25
vt 0.5 0.5
vt 0.375 0.5
vt 0.375 0.25
vt 0.5 0.25
vt 0.5 0.5
vt 0.5 0.5
vt 0.5 0.25
vt 0.75 0.25
vt 0.75 0.5
vt 0.375 0.5
vt 0.375 0.25
vt 0.5 0.25
vt 0.5 0.5
vt 0.25 0.5
vt 0.25 0.25
vt 0.375 0.25
vt 0.375 0.5
vt 1 0.5
vt 1 0.75
vt 0.75 0.75
vt 0.75 0.5
vt 0.5 0
vt 0.5 0.25
vt 0.375 0.25
vt 0.375 0
vt 0.625 0
vt 0.625 0.25
vt 0.5 0.25
vt 0.5 0
vt 0.75 0
vt 0.75 0.25
vt 0.5 0.25
vt 0.5 0
vt 0.75 0
vt 0.75 0.25
vt 0.625 0.25
vt 0.625 0
vt 0.625 0
vt 0.625 0.25
vt 0.5 0.25
vt 0.5 0
vt 0.75 0
vt 0.75 0.25
vt 0.5 0.25
vt 0.5 0
vt 0.75 0
vt 0.75 0.25
vt 0.625 0.25
vt 0.625 0
vt 0.625 0
vt 0.625 0.25
vt 0.5 0.25
vt 0.5 0
vt 0.75 0
vt 0.75 0.25
vt 0.5 0.25
vt 0.5 0
vt 0.75 0
vt 0.75 0.25
vt 0.625 0.25
vt 0.625 0
vt 0.375 0
vt 0.375 0.25
vt 0.25 0.25
vt 0.25 0
vt 0.75 0.75
vt 0.5 0.75
vt 0.5 0.5
vt 0.75 0.5
vt 0.5 0.625
vt 0.625 0.625
vt 0.625 0.75
vt 0.5 0.75
vt 0.5 0.75
vt 0.625 0.75
vt 0.625 0.625
vt 0.5 0.625
vt 0.25 0
vt 0.25 0.25
vt 0 0.25
vt 0 0
vt 0.25 0.75
vt 0 0.75
vt 0 0.625
vt 0.25 0.625
vt 0.375 0.25
vt 0.375 0.5
vt 0.25 0.5
vt 0.25 0.25
vt 0.375 0.25
vt 0.375 0.5
vt 0.25 0.5
vt 0.25 0.25
vt 0.375 0.25
vt 0.375 0.5
vt 0.25 0.5
vt 0.25 0.25
vt 0.375 0.25
vt 0.375 0.5
vt 0.25 0.5
vt 0.25 0.25
vt 0.75 0.5
vt 0.5 0.5
vt 0.5 0.25
vt 0.75 0.25
vt 0.5 0.25
vt 0.75 0.25
vt 0.75 0.5
vt 0.5 0.5
vt 0.5 0.25
vt 0.75 0.25
vt 0.75 0.5
vt 0.5 0.5
vt 0.75 0.5
vt 0.5 0.5
vt 0.5 0.25
vt 0.75 0.25
vt 0 0.625
vt 0.25 0.625
vt 0.25 0.75
vt 0 0.75
vt 0 0.625
vt 0.25 0.625
vt 0.25 0.75
vt 0 0.75
vn 1 0 0
vn -1 0 0
vn 0 1 0
vn 0 0 1
vn 0 -1 0
vn 0 1 0
vn -1 0 0
vn 0 0 1
vn 1 0 0
vn 0 1 0
vn 0 -1 0
vn 0 1 0
vn 0 0 1
vn 0 0 -1
vn 0 1 0
vn 1 0 0
vn 0 0 1
vn 0 -1 0
vn 0 1 0
vn 0 1 0
vn 0 0 -1
vn 0 0 1
vn 1 0 0
vn 0 1 0
vn 1 0 0
vn -1 0 0
vn 0 1 0
vn 0 1 0
vn -1 0 0
vn 0 -1 0
vn 0 -1 0
vn 0 -1 0
vn 0 0 -1
vn -1 0 0
vn 0 0 1
vn 1 0 0
vn -1 0 0
vn 0 0 1
vn 1 0 0
vn 0 0 -1
vn 0 0 1
vn 0 -1 0
vn 0 -1 0
vn 0 1 0
vn 0 1 0
vn 0 0 -1
vn 1 0 0
vn 0 0 -1
vn 1 0 0
vn 0 0 1
vn 1 0 0
vn 0 0 1
vn -1 0 0
vn 0 0 1
vn -1 0 0
vn 0 0 -1
vn -1 0 0
vn 0 0 -1
vn 1 0 0
vn 0 0 -1
vn 1 0 0
vn 0 0 1
vn 1 0 0
vn 0 0 1
vn -1 0 0
vn 0 0 1
vn -1 0 0
vn 0 0 -1
vn -1 0 0
vn 0 0 -1
vn -1 0 0
vn 1 0 0
vn 0 -1 0
vn 0 0 -1
vn 0 1 0
vn 0 1 0
vn 0 1 0
vn 0 1 0
vn 0 0 1
vn 1 0 0
vn 0 0 -1
vn -1 0 0
vn -1 0 0
vn 0 0 -1
usemtl m_4fe4a857-471c-69b7-9c92-9373dbe958e6
f 43/141/42 45/142/42 46/143/42 44/144/42
f 47/145/43 48/146/43 50/147/43 49/148/43
f 72/149/44 77/150/44 83/151/44 62/152/44
f 51/153/45 52/154/45 54/155/45 53/156/45
f 55/157/46 56/158/46 58/159/46 57/160/46
f 80/161/47 86/162/47 85/163/47 61/164/47
f 65/165/48 66/166/48 49/167/48 50/168/48
f 68/169/49 67/170/49 52/171/49 51/172/49
f 69/173/50 70/174/50 45/175/50 43/176/50
f 40/177/51 78/178/51 77/179/51 72/180/51
f 56/181/52 48/182/52 47/183/52 58/184/52
f 50/185/53 97/186/53 96/187/53 74/188/53
f 50/189/54 74/190/54 75/191/54 65/192/54
f 66/193/55 76/194/55 71/195/55 49/196/55
f 71/197/56 77/198/56 78/199/56 49/200/56
f 36/201/57 43/202/57 44/203/57 38/204/57
f 53/205/58 37/206/58 35/207/58 51/208/58
f 57/209/59 44/210/59 46/211/59 55/212/59
f 36/213/60 85/214/60 86/215/60 79/216/60
f 79/217/61 86/218/61 87/219/61 43/220/61
f 43/221/62 87/222/62 88/223/62 69/224/62
f 70/225/63 89/226/63 90/227/63 45/228/63
f 45/229/64 35/230/64 37/231/64 46/232/64
f 35/233/65 110/234/65 91/235/65 84/236/65
f 51/237/66 92/238/66 93/239/66 68/240/66
f 67/241/67 94/242/67 95/243/67 52/244/67
f 52/245/68 95/246/68 96/247/68 73/248/68
f 73/249/69 96/250/69 97/251/69 39/252/69
f 48/253/70 41/254/70 39/255/70 50/256/70
f 56/257/71 54/258/71 41/259/71 48/260/71
f 55/261/72 53/262/72 54/263/72 56/264/72
f 46/265/73 37/266/73 53/267/73 55/268/73
f 99/269/74 98/270/74 83/271/74 77/272/74
f 100/273/75 99/274/75 77/275/75 71/276/75
f 101/277/76 102/278/76 92/279/76 91/280/76
f 103/281/77 101/282/77 91/283/77 90/284/77
f 106/285/78 104/286/78 74/287/78 96/288/78
f 105/289/79 106/290/79 96/291/79 95/292/79
f 107/293/80 108/294/80 87/295/80 86/296/80
f 109/297/81 107/298/81 86/299/81 80/300/81
f 52/301/82 39/302/82 41/303/82 54/304/82
f 60/305/83 58/306/83 47/307/83 42/308/83
f 57/309/84 59/310/84 38/311/84 44/312/84
f 90/313/85 91/314/85 110/315/85 45/316/85
f 84/317/86 91/318/86 92/319/86 51/320/86
f 112/321/87 128/322/87 127/323/87 111/324/87
f 113/325/88 129/326/88 128/327/88 112/328/88
f 115/329/89 131/330/89 130/331/89 114/332/89
f 116/333/90 132/334/90 131/335/90 115/336/90
f 117/337/91 133/338/91 132/339/91 116/340/91
f 119/341/92 135/342/92 134/343/92 118/344/92
f 120/345/93 136/346/93 135/347/93 119/348/93
f 121/349/94 137/350/94 136/351/94 120/352/94
f 123/353/95 139/354/95 138/355/95 122/356/95
f 124/357/96 140/358/96 139/359/96 123/360/96
f 125/361/97 141/362/97 140/363/97 124/364/97
f 111/365/98 127/366/98 142/367/98 126/368/98
f 64/369/99 127/370/99 128/371/99 63/372/99
f 63/373/100 128/374/100 129/375/100 81/376/100
f 88/377/101 130/378/101 131/379/101 69/380/101
f 69/381/102 131/382/102 132/383/102 70/384/102
f 70/385/103 132/386/103 133/387/103 89/388/103
f 93/389/104 134/390/104 135/391/104 68/392/104
f 68/393/105 135/394/105 136/395/105 67/396/105
f 67/397/106 136/398/106 137/399/106 94/400/106
f 75/401/107 138/402/107 139/403/107 65/404/107
f 65/405/108 139/406/108 140/407/108 66/408/108
f 66/409/109 140/410/109 141/411/109 76/412/109
f 82/413/110 142/414/110 127/415/110 64/416/110
f 64/417/111 63/418/111 59/419/111 60/420/111
f 62/421/112 83/422/112 82/423/112 64/424/112
f 63/425/113 81/426/113 80/427/113 61/428/113
f 59/429/114 57/430/114 58/431/114 60/432/114
f 61/433/115 36/434/115 38/435/115 59/436/115
f 116/437/116 115/438/116 114/439/116 117/440/116
f 120/441/117 119/442/117 118/443/117 121/444/117
f 124/445/118 123/446/118 122/447/118 125/448/118
f 112/449/119 111/450/119 126/451/119 113/452/119
f 113/453/120 126/454/120 142/455/120 129/456/120
f 138/457/121 141/458/121 125/459/121 122/460/121
f 134/461/122 137/462/122 121/463/122 118/464/122
f 117/465/123 114/466/123 130/467/123 133/468/123
f 42/469/124 47/470/124 49/471/124 40/472/124
f 60/473/125 42/474/125 40/475/125 62/476/125