# Made in Blockbench 4.10.4
mtllib geothermal_generator.mtl

o l1
v 1.8125 1.5625 1.6875
v 1.8125 1.5625 1.3125
v 1.8125 0.5 1.6875
v 1.8125 0.5 1.3125
v 1 1.5625 1.6875
v 1 1.5625 1.3125
v 1 0.5 1.6875
v 1 0.5 1.3125
vt 0.09375 1
vt 0 1
vt 0 0.734375
vt 0.09375 0.734375
vt 0.09375 0.796875
vt 0.09375 1
vt 0 1
vt 0 0.796875
vt 0.09375 0.734375
vt 0.09375 1
vt 0.296875 1
vt 0.296875 0.734375
vt 0.296875 1
vt 0.09375 1
vt 0.09375 0.734375
vt 0.296875 0.734375
vn 1 0 0
vn 0 1 0
vn 0 0 1
vn 0 0 -1
usemtl m_80b75796-12b9-5397-0ec8-78dfc3631d82
f 2/1/1 1/2/1 3/3/1 4/4/1
f 5/5/2 1/6/2 2/7/2 6/8/2
f 3/9/3 1/10/3 5/11/3 7/12/3
f 6/13/4 2/14/4 4/15/4 8/16/4
o l2
v 1.8125 1.5625 1.1875
v 1.8125 1.5625 0.8125
v 1.8125 0.5 1.1875
v 1.8125 0.5 0.8125
v 1 1.5625 1.1875
v 1 1.5625 0.8125
v 1 0.5 1.1875
v 1 0.5 0.8125
vt 0.09375 1
vt 0 1
vt 0 0.734375
vt 0.09375 0.734375
vt 0.09375 0.796875
vt 0.09375 1
vt 0 1
vt 0 0.796875
vt 0.09375 0.734375
vt 0.09375 1
vt 0.296875 1
vt 0.296875 0.734375
vt 0.296875 1
vt 0.09375 1
vt 0.09375 0.734375
vt 0.296875 0.734375
vn 1 0 0
vn 0 1 0
vn 0 0 1
vn 0 0 -1
usemtl m_80b75796-12b9-5397-0ec8-78dfc3631d82
f 10/17/5 9/18/5 11/19/5 12/20/5
f 13/21/6 9/22/6 10/23/6 14/24/6
f 11/25/7 9/26/7 13/27/7 15/28/7
f 14/29/8 10/30/8 12/31/8 16/32/8
o l3
v 1.8125 1.5625 0.6875
v 1.8125 1.5625 0.3125
v 1.8125 0.5 0.6875
v 1.8125 0.5 0.3125
v 1 1.5625 0.6875
v 1 1.5625 0.3125
v 1 0.5 0.6875
v 1 0.5 0.3125
vt 0.09375 1
vt 0 1
vt 0 0.734375
vt 0.09375 0.734375
vt 0.09375 0.796875
vt 0.09375 1
vt 0 1
vt 0 0.796875
vt 0.09375 0.734375
vt 0.09375 1
vt 0.296875 1
vt 0.296875 0.734375
vt 0.296875 1
vt 0.09375 1
vt 0.09375 0.734375
vt 0.296875 0.734375
vn 1 0 0
vn 0 1 0
vn 0 0 1
vn 0 0 -1
usemtl m_80b75796-12b9-5397-0ec8-78dfc3631d82
f 18/33/9 17/34/9 19/35/9 20/36/9
f 21/37/10 17/38/10 18/39/10 22/40/10
f 19/41/11 17/42/11 21/43/11 23/44/11
f 22/45/12 18/46/12 20/47/12 24/48/12
o r1
v 1 1.5625 0.6875
v 1 1.5625 0.3125
v 1 0.5 0.6875
v 1 0.5 0.3125
v 0.1875 1.5625 0.6875
v 0.1875 1.5625 0.3125
v 0.1875 0.5 0.6875
v 0.1875 0.5 0.3125
vt 0.09375 1
vt 0.09375 0.796875
vt 0 0.796875
vt 0 1
vt 0.3125 0.71875
vt 0.3125 0.984375
vt 0.109375 0.984375
vt 0.109375 0.71875
vt 0.09375 1
vt 0.296875 1
vt 0.296875 0.734375
vt 0.09375 0.734375
vt 0.09375 1
vt 0 1
vt 0 0.734375
vt 0.09375 0.734375
vn 0 1 0
vn 0 0 1
vn 0 0 -1
vn -1 0 0
usemtl m_80b75796-12b9-5397-0ec8-78dfc3631d82
f 29/49/13 25/50/13 26/51/13 30/52/13
f 27/53/14 25/54/14 29/55/14 31/56/14
f 30/57/15 26/58/15 28/59/15 32/60/15
f 29/61/16 30/62/16 32/63/16 31/64/16
o r2
v 1 1.5625 1.1875
v 1 1.5625 0.8125
v 1 0.5 1.1875
v 1 0.5 0.8125
v 0.1875 1.5625 1.1875
v 0.1875 1.5625 0.8125
v 0.1875 0.5 1.1875
v 0.1875 0.5 0.8125
vt 0.09375 1
vt 0.09375 0.796875
vt 0 0.796875
vt 0 1
vt 0.25 0.875
vt 0.25 1
vt 0 1
vt 0 0.875
vt 0.09375 1
vt 0.296875 1
vt 0.296875 0.734375
vt 0.09375 0.734375
vt 0.09375 1
vt 0 1
vt 0 0.734375
vt 0.09375 0.734375
vn 0 1 0
vn 0 0 1
vn 0 0 -1
vn -1 0 0
usemtl m_80b75796-12b9-5397-0ec8-78dfc3631d82
f 37/65/17 33/66/17 34/67/17 38/68/17
f 35/69/18 33/70/18 37/71/18 39/72/18
f 38/73/19 34/74/19 36/75/19 40/76/19
f 37/77/20 38/78/20 40/79/20 39/80/20
o base
v 2 0.5 2
v 2 0.5 0
v 2 0 2
v 2 0 0
v 0 0.5 2
v 0 0.5 0
v 0 0 2
v 0 0 0
v 1 0.5 2
v 1 0.5 0
v 1 0 0
v 1 0 2
v 1 0.5 1
v 0 0.5 1
v 0 0 1
v 1 0 1
v 2 0 1
v 2 0.5 1
v 1 2 2
v 1 2 1
v 0 2 1
v 0 2 2
vt 0.75 1
vt 0.5 1
vt 0.5 0.875
vt 0.75 0.875
vt 0.5 0.875
vt 0.75 0.875
vt 0.75 1
vt 0.5 1
vt 0.25 0.25
vt 0.5 0.25
vt 0.5 0.5
vt 0.25 0.5
vt 0.25 0
vt 0.25 0.25
vt 0 0.25
vt 0 0
vt 0.75 1
vt 0.5 1
vt 0.5 0.875
vt 0.75 0.875
vt 0.5 0.875
vt 0.75 0.875
vt 0.75 1
vt 0.5 1
vt 0.25 0.5
vt 0.5 0.5
vt 0.5 0.25
vt 0.25 0.25
vt 0.75 1
vt 0.5 1
vt 0.5 0.875
vt 0.75 0.875
vt 0.25 0
vt 0.25 0.25
vt 0 0.25
vt 0 0
vt 0.5 0
vt 0.75 0
vt 0.75 0.125
vt 0.5 0.125
vt 0.75 0.5
vt 0.75 0.75
vt 0.5 0.75
vt 0.5 0.5
vt 1 0.125
vt 0.75 0.125
vt 0.75 0
vt 1 0
vt 0.25 0
vt 0.25 0.25
vt 0 0.25
vt 0 0
vt 0.25 0
vt 0.25 0.25
vt 0 0.25
vt 0 0
vt 0.5 0.875
vt 0.75 0.875
vt 0.75 1
vt 0.5 1
vt 0.24999999999999997 0.5
vt 0.5 0.5
vt 0.5 0.25
vt 0.25 0.25
vt 0.5 0.375
vt 0.25 0.375
vt 0.25 0
vt 0.5 0
vt 0.5 0.375
vt 0.25 0.375
vt 0.25 0
vt 0.5 0
vt 1 0.5
vt 0.75 0.5
vt 0.75 0.125
vt 1 0.125
vt 0.75 0.5
vt 0.5 0.5
vt 0.5 0.125
vt 0.75 0.125
vn 1 0 0
vn -1 0 0
vn 0 1 0
vn 0 -1 0
vn 0 0 1
vn 0 0 -1
vn 0 1 0
vn 0 0 -1
vn 0 -1 0
vn 0 0 1
vn 0 1 0
vn -1 0 0
vn 0 -1 0
vn 0 -1 0
vn 1 0 0
vn 0 1 0
vn 1 0 0
vn 0 0 -1
vn -1 0 0
vn 0 0 1
usemtl m_80b75796-12b9-5397-0ec8-78dfc3631d82
f 42/81/21 58/82/21 57/83/21 44/84/21
f 48/85/22 55/86/22 54/87/22 46/88/22
f 50/89/23 53/90/23 58/91/23 42/92/23
f 44/93/24 57/94/24 56/95/24 51/96/24
f 41/97/25 49/98/25 52/99/25 43/100/25
f 44/101/26 51/102/26 50/103/26 42/104/26
f 46/105/27 54/106/27 53/107/27 50/108/27
f 46/109/28 50/110/28 51/111/28 48/112/28
f 51/113/29 56/114/29 55/115/29 48/116/29
f 47/117/30 52/118/30 49/119/30 45/120/30
f 59/121/31 60/122/31 61/123/31 62/124/31
f 45/125/32 54/126/32 55/127/32 47/128/32
f 47/129/33 55/130/33 56/131/33 52/132/33
f 52/133/34 56/134/34 57/135/34 43/136/34
f 43/137/35 57/138/35 58/139/35 41/140/35
f 41/141/36 58/142/36 53/143/36 49/144/36
f 60/145/37 59/146/37 49/147/37 53/148/37
f 61/149/38 60/150/38 53/151/38 54/152/38
f 62/153/39 61/154/39 54/155/39 45/156/39
f 59/157/40 62/158/40 45/159/40 49/160/40
o body
v 1.5 1.25 2
v 1.5 1.25 1
v 1.5 1.25 0
v 1.5 0.5 0
v 0.5 1.25 1
v 0.5 1.25 0
v 0.5 0.5 1
v 0.5 0.5 0
v 1 1.25 1
v 1 1.25 2
v 1 0.5 2
v 1.5 0.5 2
v 1.5 0.5 1
vt 0.75 0.625
vt 0.75 0.8125
vt 1 0.8125
vt 1 0.625
vt 0.9375 0.8125
vt 0.8125 0.8125
vt 0.8125 0.625
vt 0.9375 0.625
vt 1 0.875
vt 0 0.875
vt 0 0.125
vt 1 0.125
vt 0.375 0.75
vt 0.25 0.75
vt 0.25 1
vt 0.375 1
vt 1 0.8125
vt 1 0.625
vt 0.75 0.625
vt 0.75 0.8125
vt 0.25 1
vt 0.5 1
vt 0.5 0.75
vt 0.25 0.75
vt 1 0.8125
vt 0.75 0.8125
vt 0.75 0.625
vt 1 0.625
vn -1 0 0
vn 0 0 1
vn 0 0 -1
vn 0 1 0
vn 1 0 0
vn 0 1 0
vn 1 0 0
usemtl m_80b75796-12b9-5397-0ec8-78dfc3631d82
f 69/161/41 67/162/41 68/163/41 70/164/41
f 63/165/42 72/166/42 73/167/42 74/168/42
usemtl m_6144b857-c5d0-1fee-032a-b741992ad013
f 68/169/43 65/170/43 66/171/43 70/172/43
usemtl m_80b75796-12b9-5397-0ec8-78dfc3631d82
f 72/173/44 63/174/44 64/175/44 71/176/44
f 63/177/45 74/178/45 75/179/45 64/180/45
f 65/181/46 68/182/46 67/183/46 64/184/46
f 65/185/47 64/186/47 75/187/47 66/188/47
o top
v 1.375 1.6875 1.8125
v 1.375 1.6875 0.1875
v 1.375 1.25 2
v 1.375 1.25 0
v 0.625 1.6875 1.8125
v 0.625 1.6875 0.1875
v 0.625 1.25 2
v 0.625 1.25 0
v 1.375 1.6875 1
v 0.625 1.6875 1
v 0.625 1.25 1
v 1.375 1.25 1
vt 0.546875 0.859375
vt 0.75 0.859375
vt 0.75 0.75
vt 0.5 0.75
vt 0.5 0.75
vt 0.75 0.75
vt 0.75 0.859375
vt 0.546875 0.859375
vt 0.46875 0.953125
vt 0.46875 0.75
vt 0.28125 0.75
vt 0.28125 0.953125
vt 0.25 0.75
vt 0.25 0.875
vt 0 0.875
vt 0 0.75
vt 0.46875 0.640625
vt 0.46875 0.7500000000000007
vt 0.28125 0.7500000000000007
vt 0.28125 0.640625
vt 0.46875 0.75
vt 0.28125 0.75
vt 0.28125 0.640625
vt 0.46875 0.640625
vt 0 0.53125
vt 0 0.734375
vt 0.1875 0.734375
vt 0.1875 0.53125
vt 0.25 1
vt 0.125 1
vt 0.125 0.875
vt 0.25 0.875
vt 0 1
vt 0 0.875
vt 0.25 0.875
vt 0.25 1
vt 1 0.5
vt 0.75 0.5
vt 0.75 0.609375
vt 0.953125 0.609375
vn 1 0 0
vn -1 0 0
vn 0 1 0
vn 0 -1 0
vn 0 0.39391929857916774 0.919145030018058
vn 0 0.39391929857916774 -0.919145030018058
vn 0 1 0
vn -1 0 0
vn 0 -1 0
vn 1 0 0
usemtl m_80b75796-12b9-5397-0ec8-78dfc3631d82
f 77/189/48 84/190/48 87/191/48 79/192/48
f 83/193/49 86/194/49 85/195/49 81/196/49
f 81/197/50 85/198/50 84/199/50 77/200/50
f 79/201/51 87/202/51 86/203/51 83/204/51
f 78/205/52 76/206/52 80/207/52 82/208/52
f 81/209/53 77/210/53 79/211/53 83/212/53
f 76/213/54 84/214/54 85/215/54 80/216/54
f 80/217/55 85/218/55 86/219/55 82/220/55
f 82/221/56 86/222/56 87/223/56 78/224/56
f 78/225/57 87/226/57 84/227/57 76/228/57