# Made in Blockbench 4.9.4
mtllib separator_spinner.mtl

o spinner
v 0.5436553006146874 0 1.3125
v 0.20710678118654757 0.8125 0.5
v 1.3125 0 0.5436553006146871
v 0.5 0.8125 0.20710678118654746
v 1.3125 0 -0.5436553006146871
v 0.5 0.8125 -0.20710678118654746
v 0.5436553006146874 0 -1.3125
v 0.20710678118654757 0.8125 -0.5
v -0.5436553006146871 0 -1.3125
v -0.20710678118654746 0.8125 -0.5
v -1.3124999999999996 0 -0.543655300614688
v -0.4999999999999999 0.8125 -0.2071067811865479
v -1.3124999999999998 0 0.5436553006146876
v -0.49999999999999994 0.8125 0.20710678118654768
v -0.5436553006146883 0 1.3125
v -0.2071067811865479 0.8125 0.5
vt 0.25 0.5
vt 0.5 0.5
vt 0.42261884232913727 0.75
vt 0.3273811576708628 0.75
vt 0.25 0.5
vt 0.5 0.5
vt 0.42261884232913727 0.75
vt 0.3273811576708628 0.75
vt 0.25 0.5
vt 0.5 0.5
vt 0.42261884232913727 0.75
vt 0.3273811576708628 0.75
vt 0.25 0.5
vt 0.5 0.5
vt 0.42261884232913727 0.75
vt 0.3273811576708628 0.75
vt 0.25 0.5
vt 0.5 0.5
vt 0.42261884232913727 0.75
vt 0.3273811576708628 0.75
vt 0.25 0.5
vt 0.5 0.5
vt 0.42261884232913727 0.75
vt 0.3273811576708628 0.75
vt 0.25 0.5
vt 0.5 0.5
vt 0.42261884232913727 0.75
vt 0.3273811576708628 0.75
vt 0.25 0.5
vt 0.5 0.5
vt 0.42261884232913727 0.75
vt 0.3273811576708628 0.75
vn 0.5 0.7071067811865476 0.4999999999999999
vn 0.7071067811865476 0.7071067811865476 0
vn 0.5 0.7071067811865476 -0.4999999999999999
vn 0 0.7071067811865476 -0.7071067811865476
vn -0.4999999999999999 0.7071067811865476 -0.5000000000000002
vn -0.7071067811865477 0.7071067811865475 -1.4440146696891754e-16
vn -0.5000000000000002 0.7071067811865476 0.49999999999999967
vn 0 0.7071067811865476 0.7071067811865476
usemtl m_385f1f06-113b-d81f-4934-67cfdaede634
f 1/1/1 3/2/1 4/3/1 2/4/1
f 3/5/2 5/6/2 6/7/2 4/8/2
f 5/9/3 7/10/3 8/11/3 6/12/3
f 7/13/4 9/14/4 10/15/4 8/16/4
f 9/17/5 11/18/5 12/19/5 10/20/5
f 11/21/6 13/22/6 14/23/6 12/24/6
f 13/25/7 15/26/7 16/27/7 14/28/7
f 15/29/8 1/30/8 2/31/8 16/32/8