# Made in Blockbench 4.10.4
mtllib stirling_generator_flywheel.mtl

o ring
v 0.12500000000000017 0.6171875 -0.25888347648318444
v -0.12499999999999982 0.6171875 -0.2588834764831845
v 0.12500000000000022 0.25107097648318444 -0.625
v -0.12499999999999982 0.2510709764831845 -0.625
v 0.12500000000000006 -0.26669597648318444 -0.625
v -0.12499999999999993 -0.2666959764831844 -0.625
v 0.1249999999999999 -0.6328125 -0.25888347648318444
v -0.12500000000000008 -0.6328125 -0.2588834764831845
v 0.12499999999999979 -0.6328125 0.2588834764831843
v -0.12500000000000022 -0.6328125 0.25888347648318427
v 0.12499999999999979 -0.2666959764831849 0.6249999999999999
v -0.12500000000000022 -0.2666959764831848 0.6249999999999999
v 0.1249999999999999 0.25107097648318455 0.625
v -0.12500000000000008 0.2510709764831846 0.625
v 0.12500000000000006 0.6171874999999998 0.2588834764831849
v -0.12499999999999993 0.6171874999999998 0.2588834764831848
v -0.12500000000000008 0.18635010736238844 0.46874999999999994
v -0.12499999999999996 0.4609374999999999 0.19416260736238858
v -0.12500000000000017 -0.20197510736238855 0.46874999999999983
v -0.12499999999999988 0.4609375 -0.19416260736238836
v -0.12499999999999988 0.18635010736238838 -0.46875000000000006
v -0.12499999999999996 -0.20197510736238827 -0.46875000000000006
v -0.12500000000000008 -0.4765625 -0.19416260736238844
v -0.12500000000000017 -0.4765625000000001 0.19416260736238825
v 0.1249999999999999 0.18635010736238838 0.46875
v 0.12499999999999982 -0.2019751073623886 0.4687499999999999
v 0.12499999999999982 -0.47656250000000017 0.1941626073623883
v 0.12499999999999993 -0.47656250000000006 -0.19416260736238838
v 0.12500000000000006 -0.20197510736238833 -0.46875
v 0.1250000000000001 0.18635010736238833 -0.46875
v 0.1250000000000001 0.4609375 -0.1941626073623883
v 0.125 0.4609374999999999 0.19416260736238863
vt 0 0.9375
vt 0.125 0.9375
vt 0.125 1
vt 0 1
vt 0 0.9375
vt 0.125 0.9375
vt 0.125 1
vt 0 1
vt 0 0.9375
vt 0.125 0.9375
vt 0.125 1
vt 0 1
vt 0 0.9375
vt 0.125 0.9375
vt 0.125 1
vt 0 1
vt 0 0.9375
vt 0.125 0.9375
vt 0.125 1
vt 0 1
vt 0 0.9375
vt 0.125 0.9375
vt 0.125 1
vt 0 1
vt 0 0.9375
vt 0.125 0.9375
vt 0.125 1
vt 0 1
vt 0 0.9375
vt 0.125 0.9375
vt 0.125 1
vt 0 1
vt 0.10937537722411382 0.890625
vt 0.015624622775887064 0.890625
vt 4.3021142204224816e-16 0.9375
vt 0.12500000000000044 0.9375
vt 0.10937537722411382 0.890625
vt 0.015624622775887064 0.890625
vt 4.3021142204224816e-16 0.9375
vt 0.12500000000000044 0.9375
vt 0.10937537722411382 0.890625
vt 0.015624622775887064 0.890625
vt 4.3021142204224816e-16 0.9375
vt 0.12500000000000044 0.9375
vt 0.10937537722411382 0.890625
vt 0.015624622775887064 0.890625
vt 4.3021142204224816e-16 0.9375
vt 0.12500000000000044 0.9375
vt 0.10937537722411382 0.890625
vt 0.015624622775887064 0.890625
vt 4.3021142204224816e-16 0.9375
vt 0.12500000000000044 0.9375
vt 0.10937537722411382 0.890625
vt 0.015624622775887064 0.890625
vt 4.3021142204224816e-16 0.9375
vt 0.12500000000000044 0.9375
vt 0.10937537722411382 0.890625
vt 0.015624622775887064 0.890625
vt 4.3021142204224816e-16 0.9375
vt 0.12500000000000044 0.9375
vt 0.10937537722411382 0.890625
vt 0.015624622775887064 0.890625
vt 4.3021142204224816e-16 0.9375
vt 0.12500000000000044 0.9375
vt 0.10937537722411382 0.890625
vt 0.015624622775887064 0.890625
vt 4.3021142204224816e-16 0.9375
vt 0.12500000000000044 0.9375
vt 0.10937537722411382 0.890625
vt 0.015624622775887064 0.890625
vt 4.3021142204224816e-16 0.9375
vt 0.12500000000000044 0.9375
vt 0.10937537722411382 0.890625
vt 0.015624622775887064 0.890625
vt 4.3021142204224816e-16 0.9375
vt 0.12500000000000044 0.9375
vt 0.10937537722411382 0.890625
vt 0.015624622775887064 0.890625
vt 4.3021142204224816e-16 0.9375
vt 0.12500000000000044 0.9375
vt 0.10937537722411382 0.890625
vt 0.015624622775887064 0.890625
vt 4.3021142204224816e-16 0.9375
vt 0.12500000000000044 0.9375
vt 0.10937537722411382 0.890625
vt 0.015624622775887064 0.890625
vt 4.3021142204224816e-16 0.9375
vt 0.12500000000000044 0.9375
vt 0.10937537722411382 0.890625
vt 0.015624622775887064 0.890625
vt 4.3021142204224816e-16 0.9375
vt 0.12500000000000044 0.9375
vt 0.10937537722411382 0.890625
vt 0.015624622775887064 0.890625
vt 4.3021142204224816e-16 0.9375
vt 0.12500000000000044 0.9375
vt 0 0.890625
vt 0 0.828125
vt 0.09375 0.828125
vt 0.09375 0.890625
vt 0 0.890625
vt 0 0.828125
vt 0.09375 0.828125
vt 0.09375 0.890625
vt 0 0.890625
vt 0 0.828125
vt 0.09375 0.828125
vt 0.09375 0.890625
vt 0 0.890625
vt 0 0.828125
vt 0.09375 0.828125
vt 0.09375 0.890625
vt 0 0.890625
vt 0 0.828125
vt 0.09375 0.828125
vt 0.09375 0.890625
vt 0 0.890625
vt 0 0.828125
vt 0.09375 0.828125
vt 0.09375 0.890625
vt 0 0.890625
vt 0 0.828125
vt 0.09375 0.828125
vt 0.09375 0.890625
vt 0 0.890625
vt 0 0.828125
vt 0.09375 0.828125
vt 0.09375 0.890625
vn 3.14018491736755e-16 0.7071067811865476 -0.7071067811865475
vn 2.220446049250313e-16 0 -1
vn 2.4651903288156613e-32 -0.7071067811865475 -0.7071067811865476
vn -2.220446049250313e-16 -1 -4.930380657631324e-32
vn -3.1401849173675503e-16 -0.7071067811865479 0.7071067811865472
vn -2.2204460492503136e-16 -2.1442523866471426e-16 1
vn -2.465190328815662e-32 0.7071067811865475 0.7071067811865476
vn 2.220446049250312e-16 1 4.2885047732942867e-16
vn -1 2.220446049250313e-16 -2.220446049250313e-16
vn -1 2.220446049250313e-16 -2.220446049250313e-16
vn -1 2.220446049250313e-16 -2.220446049250313e-16
vn -1 2.220446049250313e-16 -2.220446049250313e-16
vn -1 2.220446049250313e-16 -2.220446049250313e-16
vn -1 2.220446049250313e-16 -2.220446049250313e-16
vn -1 2.220446049250313e-16 -2.220446049250313e-16
vn -1 2.220446049250313e-16 -2.220446049250313e-16
vn 1 -2.220446049250313e-16 2.220446049250313e-16
vn 1 -2.220446049250313e-16 2.220446049250313e-16
vn 1 -2.220446049250313e-16 2.220446049250313e-16
vn 1 -2.220446049250313e-16 2.220446049250313e-16
vn 1 -2.220446049250313e-16 2.220446049250313e-16
vn 1 -2.220446049250313e-16 2.220446049250313e-16
vn 1 -2.220446049250313e-16 2.220446049250313e-16
vn 1 -2.220446049250313e-16 2.220446049250313e-16
vn -2.220446049250313e-16 0 1
vn -3.14018491736755e-16 -0.7071067811865476 0.7071067811865475
vn 4.930380657631325e-32 -0.7071067811865475 -0.7071067811865477
vn -2.2204460492503123e-16 -1 -2.859003182196192e-16
vn 2.2204460492503136e-16 2.859003182196191e-16 -1
vn 3.1401849173675503e-16 0.7071067811865476 -0.7071067811865476
vn 2.2204460492503123e-16 1 2.859003182196194e-16
vn -4.930380657631324e-32 0.7071067811865475 0.7071067811865477
usemtl m_8af01c12-caa9-5b25-0a78-a1c4a1a29aec
f 1/1/1 3/2/1 4/3/1 2/4/1
f 3/5/2 5/6/2 6/7/2 4/8/2
f 5/9/3 7/10/3 8/11/3 6/12/3
f 7/13/4 9/14/4 10/15/4 8/16/4
f 9/17/5 11/18/5 12/19/5 10/20/5
f 11/21/6 13/22/6 14/23/6 12/24/6
f 13/25/7 15/26/7 16/27/7 14/28/7
f 15/29/8 1/30/8 2/31/8 16/32/8
f 18/33/9 17/34/9 14/35/9 16/36/9
f 17/37/10 19/38/10 12/39/10 14/40/10
f 20/41/11 18/42/11 16/43/11 2/44/11
f 21/45/12 20/46/12 2/47/12 4/48/12
f 22/49/13 21/50/13 4/51/13 6/52/13
f 23/53/14 22/54/14 6/55/14 8/56/14
f 24/57/15 23/58/15 8/59/15 10/60/15
f 19/61/16 24/62/16 10/63/16 12/64/16
f 26/65/17 25/66/17 13/67/17 11/68/17
f 27/69/18 26/70/18 11/71/18 9/72/18
f 28/73/19 27/74/19 9/75/19 7/76/19
f 29/77/20 28/78/20 7/79/20 5/80/20
f 30/81/21 29/82/21 5/83/21 3/84/21
f 31/85/22 30/86/22 3/87/22 1/88/22
f 32/89/23 31/90/23 1/91/23 15/92/23
f 25/93/24 32/94/24 15/95/24 13/96/24
f 22/97/25 29/98/25 30/99/25 21/100/25
f 21/101/26 30/102/26 31/103/26 20/104/26
f 18/105/27 32/106/27 25/107/27 17/108/27
f 20/109/28 31/110/28 32/111/28 18/112/28
f 17/113/29 25/114/29 26/115/29 19/116/29
f 19/117/30 26/118/30 27/119/30 24/120/30
f 24/121/31 27/122/31 28/123/31 23/124/31
f 23/125/32 28/126/32 29/127/32 22/128/32
o shaft1
v 0.07812500000000004 0.4765625 -0.078125
v -0.07812499999999997 0.4765625 -0.07812500000000003
v 0.07812500000000004 -0.4921875 -0.078125
v -0.07812499999999997 -0.4921875 -0.07812500000000003
v 0.07812499999999999 0.4765625 0.078125
v -0.078125 0.4765625 0.07812499999999997
v 0.07812499999999999 -0.4921875 0.078125
v -0.078125 -0.4921875 0.07812499999999997
vt 0.265625 1
vt 0.21875 1
vt 0.21875 0.75
vt 0.265625 0.75
vt 0.265625 0.75
vt 0.265625 1
vt 0.21875 1
vt 0.21875 0.75
vt 0 0.75
vt 0.25 0.75
vt 0.25 1
vt 0 1
vt 0.25 0.75
vt 0.25 1
vt 0 1
vt 0 0.75
vt 0.265625 0.75
vt 0.265625 1
vt 0.21875 1
vt 0.21875 0.75
vt 0.265625 1
vt 0.21875 1
vt 0.21875 0.75
vt 0.265625 0.75
vn 2.220446049250313e-16 0 -1
vn -2.220446049250313e-16 0 1
vn 0 1 0
vn 0 -1 0
vn 1 0 2.220446049250313e-16
vn -1 0 -2.220446049250313e-16
usemtl m_8af01c12-caa9-5b25-0a78-a1c4a1a29aec
f 34/129/33 33/130/33 35/131/33 36/132/33
f 39/133/34 37/134/34 38/135/34 40/136/34
f 37/137/35 33/138/35 34/139/35 38/140/35
f 36/141/36 35/142/36 39/143/36 40/144/36
f 35/145/37 33/146/37 37/147/37 39/148/37
f 38/149/38 34/150/38 36/151/38 40/152/38
o shaft2
v 0.07812500000000012 -0.07031249999999989 -0.484375
v -0.07812499999999988 -0.07031249999999989 -0.48437500000000006
v 0.0781249999999999 -0.07031250000000011 0.484375
v -0.0781250000000001 -0.07031250000000011 0.48437499999999994
v 0.07812500000000012 0.08593750000000011 -0.48437499999999994
v -0.07812499999999989 0.08593750000000011 -0.484375
v 0.0781249999999999 0.08593749999999989 0.48437500000000006
v -0.0781250000000001 0.08593749999999989 0.484375
vt 0.265625 1
vt 0.21875 1
vt 0.21875 0.75
vt 0.265625 0.75
vt 0.265625 0.75
vt 0.265625 1
vt 0.21875 1
vt 0.21875 0.75
vt 0 0.75
vt 0.25 0.75
vt 0.25 1
vt 0 1
vt 0.25 0.75
vt 0.25 1
vt 0 1
vt 0 0.75
vt 0.265625 0.75
vt 0.265625 1
vt 0.21875 1
vt 0.21875 0.75
vt 0.265625 1
vt 0.21875 1
vt 0.21875 0.75
vt 0.265625 0.75
vn 4.930380657631324e-32 -1 -2.220446049250313e-16
vn -4.930380657631324e-32 1 2.220446049250313e-16
vn 2.220446049250313e-16 2.220446049250313e-16 -1
vn -2.220446049250313e-16 -2.220446049250313e-16 1
vn 1 0 2.220446049250313e-16
vn -1 0 -2.220446049250313e-16
usemtl m_8af01c12-caa9-5b25-0a78-a1c4a1a29aec
f 42/153/39 41/154/39 43/155/39 44/156/39
f 47/157/40 45/158/40 46/159/40 48/160/40
f 45/161/41 41/162/41 42/163/41 46/164/41
f 44/165/42 43/166/42 47/167/42 48/168/42
f 43/169/43 41/170/43 45/171/43 47/172/43
f 46/173/44 42/174/44 44/175/44 48/176/44
o shaft3
v 0.07812500000000007 -0.397747564417433 -0.295074629857035
v -0.07812499999999992 -0.397747564417433 -0.29507462985703503
v 0.07812499999999993 0.2872621298570349 0.3899350644174331
v -0.07812500000000007 0.2872621298570349 0.38993506441743303
v 0.0781250000000001 -0.2872621298570349 -0.40556006441743303
v -0.07812499999999989 -0.2872621298570349 -0.4055600644174331
v 0.07812499999999996 0.397747564417433 0.27944962985703503
v -0.07812500000000006 0.397747564417433 0.279449629857035
vt 0.265625 1
vt 0.21875 1
vt 0.21875 0.75
vt 0.265625 0.75
vt 0.265625 0.75
vt 0.265625 1
vt 0.21875 1
vt 0.21875 0.75
vt 0 0.75
vt 0.25 0.75
vt 0.25 1
vt 0 1
vt 0.25 0.75
vt 0.25 1
vt 0 1
vt 0 0.75
vt 0.265625 0.75
vt 0.265625 1
vt 0.21875 1
vt 0.21875 0.75
vt 0.265625 1
vt 0.21875 1
vt 0.21875 0.75
vt 0.265625 0.75
vn -1.570092458683775e-16 -0.7071067811865477 0.7071067811865475
vn 1.570092458683775e-16 0.7071067811865477 -0.7071067811865475
vn 1.5700924586837754e-16 -0.7071067811865475 -0.7071067811865477
vn -1.5700924586837754e-16 0.7071067811865475 0.7071067811865477
vn 1 0 2.220446049250313e-16
vn -1 0 -2.220446049250313e-16
usemtl m_8af01c12-caa9-5b25-0a78-a1c4a1a29aec
f 50/177/45 49/178/45 51/179/45 52/180/45
f 55/181/46 53/182/46 54/183/46 56/184/46
f 53/185/47 49/186/47 50/187/47 54/188/47
f 52/189/48 51/190/48 55/191/48 56/192/48
f 51/193/49 49/194/49 53/195/49 55/196/49
f 54/197/50 50/198/50 52/199/50 56/200/50
o shaft4
v 0.0781250000000001 0.2872621298570349 -0.38993506441743303
v -0.0781249999999999 0.2872621298570349 -0.3899350644174331
v 0.07812499999999996 -0.397747564417433 0.2950746298570349
v -0.07812500000000006 -0.397747564417433 0.29507462985703486
v 0.07812500000000007 0.397747564417433 -0.279449629857035
v -0.07812499999999992 0.397747564417433 -0.27944962985703503
v 0.07812499999999993 -0.2872621298570349 0.405560064417433
v -0.07812500000000008 -0.2872621298570349 0.4055600644174329
vt 0.265625 1
vt 0.21875 1
vt 0.21875 0.75
vt 0.265625 0.75
vt 0.265625 0.75
vt 0.265625 1
vt 0.21875 1
vt 0.21875 0.75
vt 0 0.75
vt 0.25 0.75
vt 0.25 1
vt 0 1
vt 0.25 0.75
vt 0.25 1
vt 0 1
vt 0 0.75
vt 0.265625 0.75
vt 0.265625 1
vt 0.21875 1
vt 0.21875 0.75
vt 0.265625 1
vt 0.21875 1
vt 0.21875 0.75
vt 0.265625 0.75
vn 1.570092458683775e-16 -0.7071067811865476 -0.7071067811865475
vn -1.570092458683775e-16 0.7071067811865476 0.7071067811865475
vn 1.5700924586837752e-16 0.7071067811865475 -0.7071067811865476
vn -1.5700924586837752e-16 -0.7071067811865475 0.7071067811865476
vn 1 0 2.220446049250313e-16
vn -1 0 -2.220446049250313e-16
usemtl m_8af01c12-caa9-5b25-0a78-a1c4a1a29aec
f 58/201/51 57/202/51 59/203/51 60/204/51
f 63/205/52 61/206/52 62/207/52 64/208/52
f 61/209/53 57/210/53 58/211/53 62/212/53
f 60/213/54 59/214/54 63/215/54 64/216/54
f 59/217/55 57/218/55 61/219/55 63/220/55
f 62/221/56 58/222/56 60/223/56 64/224/56
o center
v 0.12500000000000006 0.1796875 -0.1875
v -0.12499999999999994 0.1796875 -0.18750000000000006
v 0.12500000000000006 -0.1953125 -0.1875
v -0.12499999999999994 -0.1953125 -0.18750000000000006
v 0.12499999999999996 0.1796875 0.1875
v -0.12500000000000003 0.1796875 0.18749999999999994
v 0.12499999999999996 -0.1953125 0.1875
v -0.12500000000000003 -0.1953125 0.18749999999999994
vt 0.21875 1
vt 0.15625 1
vt 0.15625 0.90625
vt 0.21875 0.90625
vt 0.1875 0.90625
vt 0.1875 1
vt 0.125 1
vt 0.125 0.90625
vt 0.125 0.9375
vt 0.21875 0.9375
vt 0.21875 1
vt 0.125 1
vt 0.21875 0.90625
vt 0.21875 0.96875
vt 0.125 0.96875
vt 0.125 0.90625
vt 0.21875 1
vt 0.125 1
vt 0.125 0.90625
vt 0.21875 0.90625
vt 0.21875 1
vt 0.125 1
vt 0.125 0.90625
vt 0.21875 0.90625
vn 2.220446049250313e-16 0 -1
vn -2.220446049250313e-16 0 1
vn 0 1 0
vn 0 -1 0
vn 1 0 2.220446049250313e-16
vn -1 0 -2.220446049250313e-16
usemtl m_8af01c12-caa9-5b25-0a78-a1c4a1a29aec
f 66/225/57 65/226/57 67/227/57 68/228/57
f 71/229/58 69/230/58 70/231/58 72/232/58
f 69/233/59 65/234/59 66/235/59 70/236/59
f 68/237/60 67/238/60 71/239/60 72/240/60
f 67/241/61 65/242/61 69/243/61 71/244/61
f 70/245/62 66/246/62 68/247/62 72/248/62