# Made in Blockbench 4.10.4
mtllib stirling_generator.mtl

o base
v 2 0.5 0
v 2 0 2
v 2 0 0
v 0 0.5 0
v 0 0 2
v 0 0 0
v 1 0.5 0
v 1 0 0
v 1 0 2
v 0 0 1
v 1 0 1
v 2 0 1
v 0 0.5 1
v 0 0.5 2
v 2 0.5 2
v 2 0.5 1
v 1 0.5 1
v 1 0.5 2
v 2 0.5 1.5
v 1 0.5 1.5
v 0 0.5 1.5
v 0 0 1.5
v 1 0 1.5
v 2 0 1.5
v 1 1 2
v 1 1 1.5
v 0 1 1.5
v 0 1 2
v 2 1 2
v 2 1 1.5
vt 0.5 0.125
vt 0.25 0.125
vt 0.25 0
vt 0.5 0
vt 0.25 0
vt 0.5 0
vt 0.5 0.125
vt 0.25 0.125
vt 0.25 0.25
vt 0.5 0.25
vt 0.5 0.5
vt 0.25 0.5
vt 0.25 0
vt 0.25 0.25
vt 0 0.25
vt 0 0
vt 1 0.125
vt 0.75 0.125
vt 0.75 0
vt 1 0
vt 0.25 0
vt 0.5 0
vt 0.5 0.125
vt 0.25 0.125
vt 0.25 0.5
vt 0.25 0.25
vt 0.5 0.25
vt 0.5 0.5
vt 0.5 0.125
vt 0.25 0.125
vt 0.25 0
vt 0.5 0
vt 0.25 0
vt 0.25 0.25
vt 0 0.25
vt 0 0
vt 0.5 0
vt 0.75 0
vt 0.75 0.125
vt 0.5 0.125
vt 0.375 0.25
vt 0.375 0.375
vt 0.625 0.375
vt 0.625 0.25
vt 0.25 0
vt 0.375 0
vt 0.375 0.125
vt 0.25 0.125
vt 0 0.25
vt 0 0.125
vt 0.25 0.125
vt 0.25 0.25
vt 0 0.25
vt 0 0.125
vt 0.25 0.125
vt 0.25 0.25
vt 0.5 0.125
vt 0.375 0.125
vt 0.375 0
vt 0.5 0
vt 0.625 0.25
vt 0.625 0.375
vt 0.375 0.375
vt 0.375 0.25
vt 0.25 0.375
vt 0.25 0.5
vt 0 0.5
vt 0 0.375
vt 0.25 0.25
vt 0.25 0.375
vt 0 0.375
vt 0 0.25
vt 0.5 0.125
vt 0.375 0.125
vt 0.375 0
vt 0.5 0
vt 0.25 0
vt 0.25 0.125
vt 0 0.125
vt 0 0
vt 0.25 0
vt 0.25 0.125
vt 0 0.125
vt 0 0
vt 0.25 0
vt 0.375 0
vt 0.375 0.125
vt 0.25 0.125
vt 0.25 0.25
vt 0.5 0.25
vt 0.5 0.125
vt 0.25 0.125
vt 0.375 0.25
vt 0.25 0.25
vt 0.25 0.125
vt 0.375 0.125
vt 0.75 0.25
vt 0.5 0.25
vt 0.5 0.125
vt 0.75 0.125
vt 0.375 0.25
vt 0.25 0.25
vt 0.25 0.125
vt 0.375 0.125
vt 0.5 0.25
vt 0.25 0.25
vt 0.25 0.125
vt 0.5 0.125
vt 1 0.25
vt 0.75 0.25
vt 0.75 0.125
vt 1 0.125
vn 1 0 0
vn -1 0 0
vn 0 1 0
vn 0 -1 0
vn 0 0 1
vn 0 0 -1
vn 0 1 0
vn 0 0 -1
vn 0 -1 0
vn 0 0 1
vn 0 1 0
vn -1 0 0
vn 0 -1 0
vn 0 -1 0
vn 1 0 0
vn 0 1 0
vn 0 1 0
vn 0 1 0
vn -1 0 0
vn 0 -1 0
vn 0 -1 0
vn 1 0 0
vn 0 0 -1
vn -1 0 0
vn 0 0 1
vn 1 0 0
vn 0 0 -1
vn 0 0 1
usemtl m_9e764203-3af4-ec6f-569d-a3ca5fa5b169
f 1/1/1 16/2/1 12/3/1 3/4/1
f 6/5/2 10/6/2 13/7/2 4/8/2
f 7/9/3 17/10/3 16/11/3 1/12/3
usemtl none
f 3/13/4 12/14/4 11/15/4 8/16/4
usemtl m_9e764203-3af4-ec6f-569d-a3ca5fa5b169
f 15/17/5 18/18/5 9/19/5 2/20/5
f 3/21/6 8/22/6 7/23/6 1/24/6
f 4/25/7 13/26/7 17/27/7 7/28/7
f 4/29/8 7/30/8 8/31/8 6/32/8
usemtl none
f 8/33/9 11/34/9 10/35/9 6/36/9
usemtl m_9e764203-3af4-ec6f-569d-a3ca5fa5b169
f 5/37/10 9/38/10 18/39/10 14/40/10
f 13/41/11 21/42/11 20/43/11 17/44/11
f 10/45/12 22/46/12 21/47/12 13/48/12
usemtl none
f 11/49/13 23/50/13 22/51/13 10/52/13
f 12/53/14 24/54/14 23/55/14 11/56/14
usemtl m_9e764203-3af4-ec6f-569d-a3ca5fa5b169
f 16/57/15 19/58/15 24/59/15 12/60/15
f 17/61/16 20/62/16 19/63/16 16/64/16
f 29/65/17 30/66/17 26/67/17 25/68/17
f 25/69/18 26/70/18 27/71/18 28/72/18
f 14/73/19 21/74/19 22/75/19 5/76/19
usemtl none
f 5/77/20 22/78/20 23/79/20 9/80/20
f 9/81/21 23/82/21 24/83/21 2/84/21
usemtl m_9e764203-3af4-ec6f-569d-a3ca5fa5b169
f 2/85/22 24/86/22 19/87/22 15/88/22
f 27/89/23 26/90/23 20/91/23 21/92/23
f 28/93/24 27/94/24 21/95/24 14/96/24
f 25/97/25 28/98/25 14/99/25 18/100/25
f 30/101/26 29/102/26 15/103/26 19/104/26
f 26/105/27 30/106/27 19/107/27 20/108/27
f 29/109/28 25/110/28 18/111/28 15/112/28
o cylinder1
v 0.5625 1.7910533905932737 1.0625
v 0.5625 1.7910533905932737 0.5625
v 0.8535533905932737 1.5 1.0625
v 0.8535533905932737 1.5 0.5625
v 0.20894660940672627 1.4375 1.0625
v 0.20894660940672627 1.4375 0.5625
v 0.5 1.1464466094067263 1.0625
v 0.5 1.1464466094067263 0.5625
vt 0.390625 1
vt 0.265625 1
vt 0.265625 0.90625
vt 0.390625 0.90625
vt 0.390625 0.90625
vt 0.390625 1
vt 0.265625 1
vt 0.265625 0.90625
vt 0.265625 0.78125
vt 0.390625 0.78125
vt 0.390625 0.90625
vt 0.265625 0.90625
vt 0.25 0.75
vt 0.25 1
vt 0 1
vt 0 0.75
vt 0.390625 0.90625
vt 0.390625 1
vt 0.265625 1
vt 0.265625 0.90625
vt 0.390625 1
vt 0.265625 1
vt 0.265625 0.90625
vt 0.390625 0.90625
vn 0.7071067811865475 0.7071067811865476 0
vn -0.7071067811865475 -0.7071067811865476 0
vn -0.7071067811865476 0.7071067811865475 0
vn 0.7071067811865476 -0.7071067811865475 0
vn 0 0 1
vn 0 0 -1
usemtl m_9e764203-3af4-ec6f-569d-a3ca5fa5b169
f 32/113/29 31/114/29 33/115/29 34/116/29
f 37/117/30 35/118/30 36/119/30 38/120/30
f 35/121/31 31/122/31 32/123/31 36/124/31
usemtl none
f 34/125/32 33/126/32 37/127/32 38/128/32
usemtl m_9e764203-3af4-ec6f-569d-a3ca5fa5b169
f 33/129/33 31/130/33 35/131/33 37/132/33
f 36/133/34 32/134/34 34/135/34 38/136/34
o cylinder2
v 0.5625 1.7910533905932737 1.6875
v 0.5625 1.7910533905932737 1.1875
v 0.8535533905932737 1.5 1.6875
v 0.8535533905932737 1.5 1.1875
v 0.20894660940672627 1.4375 1.6875
v 0.20894660940672627 1.4375 1.1875
v 0.5 1.1464466094067263 1.6875
v 0.5 1.1464466094067263 1.1875
vt 0.390625 1
vt 0.265625 1
vt 0.265625 0.90625
vt 0.390625 0.90625
vt 0.390625 0.90625
vt 0.390625 1
vt 0.265625 1
vt 0.265625 0.90625
vt 0.265625 0.78125
vt 0.390625 0.78125
vt 0.390625 0.90625
vt 0.265625 0.90625
vt 0.25 0.75
vt 0.25 1
vt 0 1
vt 0 0.75
vt 0.390625 0.90625
vt 0.390625 1
vt 0.265625 1
vt 0.265625 0.90625
vt 0.26562500000000017 1
vt 0.38990497925067175 0.9999964889213543
vt 0.390625 0.90625
vt 0.265625 0.9062500000000001
vn 0.7071067811865475 0.7071067811865476 0
vn -0.7071067811865475 -0.7071067811865476 0
vn -0.7071067811865476 0.7071067811865475 0
vn 0.7071067811865476 -0.7071067811865475 0
vn 0 0 1
vn 0 0 -1
usemtl m_9e764203-3af4-ec6f-569d-a3ca5fa5b169
f 40/137/35 39/138/35 41/139/35 42/140/35
f 45/141/36 43/142/36 44/143/36 46/144/36
f 43/145/37 39/146/37 40/147/37 44/148/37
usemtl none
f 42/149/38 41/150/38 45/151/38 46/152/38
usemtl m_9e764203-3af4-ec6f-569d-a3ca5fa5b169
f 41/153/39 39/154/39 43/155/39 45/156/39
f 44/157/40 40/158/40 42/159/40 46/160/40
o cylinder4
v 1.4375 1.7910533905932737 1.6875
v 1.4375 1.7910533905932737 1.1875
v 1.7910533905932737 1.4375 1.6875
v 1.7910533905932737 1.4375 1.1875
v 1.1464466094067263 1.5 1.6875
v 1.1464466094067263 1.5 1.1875
v 1.5 1.1464466094067263 1.6875
v 1.5 1.1464466094067263 1.1875
vt 0.265625 0.78125
vt 0.390625 0.78125
vt 0.390625 0.90625
vt 0.265625 0.90625
vt 0.25 0.875
vt 0.25 1
vt 0 1
vt 0 0.875
vt 0.265625 0.90625
vt 0.265625 1
vt 0.390625 1
vt 0.390625 0.90625
vt 0.265625 1
vt 0.390625 1
vt 0.390625 0.90625
vt 0.265625 0.90625
vt 0.26562500000000017 1
vt 0.38990497925067175 0.9999964889213543
vt 0.390625 0.90625
vt 0.265625 0.9062500000000001
vt 0.390625 0.90625
vt 0.390625 1
vt 0.265625 1
vt 0.265625 0.90625
vn 0.7071067811865475 0.7071067811865476 0
vn -0.7071067811865475 -0.7071067811865476 0
vn -0.7071067811865476 0.7071067811865475 0
vn 0.7071067811865476 -0.7071067811865475 0
vn 0 0 1
vn 0 0 -1
usemtl m_9e764203-3af4-ec6f-569d-a3ca5fa5b169
f 48/161/41 47/162/41 49/163/41 50/164/41
usemtl none
f 53/165/42 51/166/42 52/167/42 54/168/42
usemtl m_9e764203-3af4-ec6f-569d-a3ca5fa5b169
f 51/169/43 47/170/43 48/171/43 52/172/43
f 50/173/44 49/174/44 53/175/44 54/176/44
f 49/177/45 47/178/45 51/179/45 53/180/45
f 52/181/46 48/182/46 50/183/46 54/184/46
o cylinder3
v 1.4375 1.7910533905932737 1.0625
v 1.4375 1.7910533905932737 0.5625
v 1.7910533905932737 1.4375 1.0625
v 1.7910533905932737 1.4375 0.5625
v 1.1464466094067263 1.5 1.0625
v 1.1464466094067263 1.5 0.5625
v 1.5 1.1464466094067263 1.0625
v 1.5 1.1464466094067263 0.5625
vt 0.265625 0.78125
vt 0.390625 0.78125
vt 0.390625 0.90625
vt 0.265625 0.90625
vt 0.25 0.875
vt 0.25 1
vt 0 1
vt 0 0.875
vt 0.265625 0.90625
vt 0.265625 1
vt 0.390625 1
vt 0.390625 0.90625
vt 0.265625 1
vt 0.390625 1
vt 0.390625 0.90625
vt 0.265625 0.90625
vt 0.26562500000000017 1
vt 0.38990497925067175 0.9999964889213543
vt 0.390625 0.90625
vt 0.265625 0.9062500000000001
vt 0.390625 0.90625
vt 0.390625 1
vt 0.265625 1
vt 0.265625 0.90625
vn 0.7071067811865475 0.7071067811865476 0
vn -0.7071067811865475 -0.7071067811865476 0
vn -0.7071067811865476 0.7071067811865475 0
vn 0.7071067811865476 -0.7071067811865475 0
vn 0 0 1
vn 0 0 -1
usemtl m_9e764203-3af4-ec6f-569d-a3ca5fa5b169
f 56/185/47 55/186/47 57/187/47 58/188/47
usemtl none
f 61/189/48 59/190/48 60/191/48 62/192/48
usemtl m_9e764203-3af4-ec6f-569d-a3ca5fa5b169
f 59/193/49 55/194/49 56/195/49 60/196/49
f 58/197/50 57/198/50 61/199/50 62/200/50
f 57/201/51 55/202/51 59/203/51 61/204/51
f 60/205/52 56/206/52 58/207/52 62/208/52
o engine_base
v 1.5 1.5 1.875
v 1.5 1.5 0.5
v 1.75 0.5 1.875
v 1.75 0.5 0.5
v 0.5 1.5 1.875
v 0.5 1.5 0.5
v 0.25 0.5 1.875
v 0.25 0.5 0.5
v 1.75 1 1.875
v 1.75 1 0.5
v 0.25 1 0.5
v 0.25 1 1.875
vt 1 0
vt 1 0.5
vt -0.375 0.5
vt -0.375 0
vt 1.375 0
vt 1.375 0.5
vt 0 0.5
vt 0 0
vt 0.65625 0.75
vt 0.65625 0.5
vt 1 0.5
vt 1 0.75
vt 0.25 0.75
vt 0.25 1
vt 0 1
vt 0 0.75
vt 1 0.25
vt 1 0.375
vt 0.75 0.375
vt 0.75 0.25
vt 1 0.25
vt 1 0.375
vt 0.75 0.375
vt 0.75 0.25
vt 0.3125 0.7656249999999992
vt 0.3125 0.6249999999999992
vt 0.65625 0.6249999999999992
vt 0.65625 0.7656249999999992
vt 0.0625 0.625
vt 0 0.5
vt 0.375 0.5
vt 0.3125 0.625
vt 0.65625 0.7656249999999992
vt 0.65625 0.6249999999999992
vt 0.3125 0.6249999999999992
vt 0.3125 0.7656249999999992
vt 0.0625 0.625
vt 0 0.5
vt 0.375 0.5
vt 0.3125 0.625
vn 1 0 0
vn -1 0 0
vn 0 1 0
vn 0 -1 0
vn 0 0 1
vn 0 0 -1
vn 0.8944271909999161 0.44721359549995804 0
vn 0 0 -1
vn -0.8944271909999161 0.44721359549995804 0
vn 0 0 1
usemtl m_8478d694-77c0-9e41-15d2-62d2f87f3fef
f 66/209/53 72/210/53 71/211/53 65/212/53
f 69/213/54 74/214/54 73/215/54 70/216/54
usemtl m_9e764203-3af4-ec6f-569d-a3ca5fa5b169
f 67/217/55 63/218/55 64/219/55 68/220/55
usemtl none
f 66/221/56 65/222/56 69/223/56 70/224/56
usemtl m_9e764203-3af4-ec6f-569d-a3ca5fa5b169
f 65/225/57 71/226/57 74/227/57 69/228/57
f 70/229/58 73/230/58 72/231/58 66/232/58
f 63/233/59 71/234/59 72/235/59 64/236/59
f 64/237/60 72/238/60 73/239/60 68/240/60
f 68/241/61 73/242/61 74/243/61 67/244/61
f 67/245/62 74/246/62 71/247/62 63/248/62