# Made in Blockbench 4.11.2
mtllib temporal_sieve.mtl

o cuboid1
v 1.625 1.5625 1.625
v 1.625 1.5625 1.125
v 1.625 0.5 1.625
v 1.625 0.5 1.125
v 1.125 1.5625 1.625
v 1.125 1.5625 1.125
v 1.125 0.5 1.625
v 1.125 0.5 1.125
vt 0.5 1
vt 0 1
vt 0 0
vt 0.5 0
vt 0.5 0
vt 0.5 1
vt 0 1
vt 0 0
vt 0 0.90625
vt 0.09375 0.90625
vt 0.09375 1
vt 0 1
vt 0.09375 0.90625
vt 0.09375 1
vt 0 1
vt 0 0.90625
vt 0.5 0
vt 0.5 1
vt 0 1
vt 0 0
vt 0.5 1
vt 0 1
vt 0 0
vt 0.5 0
vn 1 0 0
vn -1 0 0
vn 0 1 0
vn 0 -1 0
vn 0 0 1
vn 0 0 -1
usemtl m_0b4ffd32-9962-4ce9-31ea-af8956929279
f 2/1/1 1/2/1 3/3/1 4/4/1
f 7/5/2 5/6/2 6/7/2 8/8/2
usemtl none
f 5/9/3 1/10/3 2/11/3 6/12/3
f 4/13/4 3/14/4 7/15/4 8/16/4
usemtl m_0b4ffd32-9962-4ce9-31ea-af8956929279
f 3/17/5 1/18/5 5/19/5 7/20/5
f 6/21/6 2/22/6 4/23/6 8/24/6
o cuboid2
v 0.875 1.5625 0.875
v 0.875 1.5625 0.375
v 0.875 0.5 0.875
v 0.875 0.5 0.375
v 0.375 1.5625 0.875
v 0.375 1.5625 0.375
v 0.375 0.5 0.875
v 0.375 0.5 0.375
vt 0.5 1
vt 0 1
vt 0 0
vt 0.5 0
vt 0.5 0
vt 0.5 1
vt 0 1
vt 0 0
vt 0 0.90625
vt 0.09375 0.90625
vt 0.09375 1
vt 0 1
vt 0.09375 0.90625
vt 0.09375 1
vt 0 1
vt 0 0.90625
vt 0.5 0
vt 0.5 1
vt 0 1
vt 0 0
vt 0.5 1
vt 0 1
vt 0 0
vt 0.5 0
vn 1 0 0
vn -1 0 0
vn 0 1 0
vn 0 -1 0
vn 0 0 1
vn 0 0 -1
usemtl m_0b4ffd32-9962-4ce9-31ea-af8956929279
f 10/25/7 9/26/7 11/27/7 12/28/7
f 15/29/8 13/30/8 14/31/8 16/32/8
usemtl none
f 13/33/9 9/34/9 10/35/9 14/36/9
f 12/37/10 11/38/10 15/39/10 16/40/10
usemtl m_0b4ffd32-9962-4ce9-31ea-af8956929279
f 11/41/11 9/42/11 13/43/11 15/44/11
f 14/45/12 10/46/12 12/47/12 16/48/12
o cuboid3
v 1.625 1.5625 0.875
v 1.625 1.5625 0.375
v 1.625 0.5 0.875
v 1.625 0.5 0.375
v 1.125 1.5625 0.875
v 1.125 1.5625 0.375
v 1.125 0.5 0.875
v 1.125 0.5 0.375
vt 0.5 1
vt 0 1
vt 0 0
vt 0.5 0
vt 0.5 0
vt 0.5 1
vt 0 1
vt 0 0
vt 0 0.90625
vt 0.09375 0.90625
vt 0.09375 1
vt 0 1
vt 0.09375 0.90625
vt 0.09375 1
vt 0 1
vt 0 0.90625
vt 0.5 0
vt 0.5 1
vt 0 1
vt 0 0
vt 0.5 1
vt 0 1
vt 0 0
vt 0.5 0
vn 1 0 0
vn -1 0 0
vn 0 1 0
vn 0 -1 0
vn 0 0 1
vn 0 0 -1
usemtl m_0b4ffd32-9962-4ce9-31ea-af8956929279
f 18/49/13 17/50/13 19/51/13 20/52/13
f 23/53/14 21/54/14 22/55/14 24/56/14
usemtl none
f 21/57/15 17/58/15 18/59/15 22/60/15
f 20/61/16 19/62/16 23/63/16 24/64/16
usemtl m_0b4ffd32-9962-4ce9-31ea-af8956929279
f 19/65/17 17/66/17 21/67/17 23/68/17
f 22/69/18 18/70/18 20/71/18 24/72/18
o cuboid4
v 0.875 1.5625 1.625
v 0.875 1.5625 1.125
v 0.875 0.5 1.625
v 0.875 0.5 1.125
v 0.375 1.5625 1.625
v 0.375 1.5625 1.125
v 0.375 0.5 1.625
v 0.375 0.5 1.125
vt 0.5 1
vt 0 1
vt 0 0
vt 0.5 0
vt 0.5 0
vt 0.5 1
vt 0 1
vt 0 0
vt 0 0.90625
vt 0.09375 0.90625
vt 0.09375 1
vt 0 1
vt 0.09375 0.90625
vt 0.09375 1
vt 0 1
vt 0 0.90625
vt 0.5 0
vt 0.5 1
vt 0 1
vt 0 0
vt 0.5 1
vt 0 1
vt 0 0
vt 0.5 0
vn 1 0 0
vn -1 0 0
vn 0 1 0
vn 0 -1 0
vn 0 0 1
vn 0 0 -1
usemtl m_0b4ffd32-9962-4ce9-31ea-af8956929279
f 26/73/19 25/74/19 27/75/19 28/76/19
f 31/77/20 29/78/20 30/79/20 32/80/20
usemtl none
f 29/81/21 25/82/21 26/83/21 30/84/21
f 28/85/22 27/86/22 31/87/22 32/88/22
usemtl m_0b4ffd32-9962-4ce9-31ea-af8956929279
f 27/89/23 25/90/23 29/91/23 31/92/23
f 30/93/24 26/94/24 28/95/24 32/96/24
o center
v 1.375 1.5625 1.375
v 1.375 1.5625 0.625
v 1.375 0.5 1.375
v 1.375 0.5 0.625
v 0.625 1.5625 1.375
v 0.625 1.5625 0.625
v 0.625 0.5 1.375
v 0.625 0.5 0.625
vt 0.78125 1
vt 0.59375 1
vt 0.59375 0.734375
vt 0.78125 0.734375
vt 0.78125 0.734375
vt 0.78125 1
vt 0.59375 1
vt 0.59375 0.734375
vt 0 0.75
vt 0.25 0.75
vt 0.25 1
vt 0 1
vt 0.25 0.75
vt 0.25 1
vt 0 1
vt 0 0.75
vt 0.78125 0.734375
vt 0.78125 1
vt 0.59375 1
vt 0.59375 0.734375
vt 0.78125 1
vt 0.59375 1
vt 0.59375 0.734375
vt 0.78125 0.734375
vn 1 0 0
vn -1 0 0
vn 0 1 0
vn 0 -1 0
vn 0 0 1
vn 0 0 -1
usemtl m_d6b796cc-2b2d-543f-0bd4-6755182cd1ad
f 34/97/25 33/98/25 35/99/25 36/100/25
f 39/101/26 37/102/26 38/103/26 40/104/26
usemtl none
f 37/105/27 33/106/27 34/107/27 38/108/27
f 36/109/28 35/110/28 39/111/28 40/112/28
usemtl m_d6b796cc-2b2d-543f-0bd4-6755182cd1ad
f 35/113/29 33/114/29 37/115/29 39/116/29
f 38/117/30 34/118/30 36/119/30 40/120/30
o top
v 1 1.5625 1
v 1 1.9375 1
v 1.4142135623730951 1.5625 2
v 1.4142135623730951 1.9375 2
v 2 1.5625 1.4142135623730951
v 2 1.9375 1.4142135623730951
v 2 1.5625 0.585786437626905
v 2 1.9375 0.585786437626905
v 1.4142135623730951 1.5625 0
v 1.4142135623730951 1.9375 0
v 0.5857864376269051 1.5625 -2.220446049250313e-16
v 0.5857864376269051 1.9375 -2.220446049250313e-16
v 2.220446049250313e-16 1.5625 0.5857864376269043
v 2.220446049250313e-16 1.9375 0.5857864376269043
v 1.1102230246251565e-16 1.5625 1.4142135623730954
v 1.1102230246251565e-16 1.9375 1.4142135623730954
v 0.5857864376269042 1.5625 1.9999999999999998
v 0.5857864376269042 1.9375 1.9999999999999998
vt 0 0.75
vt 0.21875 0.75
vt 0.109375 0.5
vt 0.25 0.90625
vt 0.46875 0.90625
vt 0.46875 1
vt 0.25 1
vt 0 0.75
vt 0.21875 0.75
vt 0.109375 0.5
vt 0 0.75
vt 0.21875 0.75
vt 0.109375 0.5
vt 0.25 0.90625
vt 0.46875 0.90625
vt 0.46875 1
vt 0.25 1
vt 0 0.75
vt 0.21875 0.75
vt 0.109375 0.5
vt 0 0.75
vt 0.21875 0.75
vt 0.109375 0.5
vt 0.25 0.90625
vt 0.46875 0.90625
vt 0.46875 1
vt 0.25 1
vt 0 0.75
vt 0.21875 0.75
vt 0.109375 0.5
vt 0 0.75
vt 0.21875 0.75
vt 0.109375 0.5
vt 0.25 0.90625
vt 0.46875 0.90625
vt 0.46875 1
vt 0.25 1
vt 0 0.75
vt 0.21875 0.75
vt 0.109375 0.5
vt 0 0.75
vt 0.21875 0.75
vt 0.109375 0.5
vt 0.25 0.90625
vt 0.46875 0.90625
vt 0.46875 1
vt 0.25 1
vt 0 0.75
vt 0.21875 0.75
vt 0.109375 0.5
vt 0 0.75
vt 0.21875 0.75
vt 0.109375 0.5
vt 0.25 0.90625
vt 0.46875 0.90625
vt 0.46875 1
vt 0.25 1
vt 0 0.75
vt 0.21875 0.75
vt 0.109375 0.5
vt 0 0.75
vt 0.21875 0.75
vt 0.109375 0.5
vt 0.25 0.90625
vt 0.46875 0.90625
vt 0.46875 1
vt 0.25 1
vt 0 0.75
vt 0.21875 0.75
vt 0.109375 0.5
vt 0 0.75
vt 0.21875 0.75
vt 0.109375 0.5
vt 0.25 0.90625
vt 0.46875 0.90625
vt 0.46875 1
vt 0.25 1
vt 0 0.75
vt 0.21875 0.75
vt 0.109375 0.5
vn 0 -1 0
vn 0.7071067811865476 0 0.7071067811865476
vn 0 1 0
vn 0 -1 0
vn 1 0 0
vn 0 1 0
vn 0 -1 0
vn 0.7071067811865476 0 -0.7071067811865475
vn 0 1 0
vn 0 -1 0
vn 2.6803154833089315e-16 0 -1
vn 0 1 0
vn 0 -1 0
vn -0.7071067811865474 0 -0.7071067811865478
vn 0 1 0
vn 0 -1 0
vn -1 0 -1.3401577416544643e-16
vn 0 1 0
vn 0 -1 0
vn -0.7071067811865477 0 0.7071067811865475
vn 0 1 0
vn 0 -1 0
vn -2.680315483308929e-16 0 1
vn 0 1 0
usemtl m_d6b796cc-2b2d-543f-0bd4-6755182cd1ad
f 45/121/31 43/122/31 41/123/31
f 43/124/32 45/125/32 46/126/32 44/127/32
f 44/128/33 46/129/33 42/130/33
f 47/131/34 45/132/34 41/133/34
f 45/134/35 47/135/35 48/136/35 46/137/35
f 46/138/36 48/139/36 42/140/36
f 49/141/37 47/142/37 41/143/37
f 47/144/38 49/145/38 50/146/38 48/147/38
f 48/148/39 50/149/39 42/150/39
f 51/151/40 49/152/40 41/153/40
f 49/154/41 51/155/41 52/156/41 50/157/41
f 50/158/42 52/159/42 42/160/42
f 53/161/43 51/162/43 41/163/43
f 51/164/44 53/165/44 54/166/44 52/167/44
f 52/168/45 54/169/45 42/170/45
f 55/171/46 53/172/46 41/173/46
f 53/174/47 55/175/47 56/176/47 54/177/47
f 54/178/48 56/179/48 42/180/48
f 57/181/49 55/182/49 41/183/49
f 55/184/50 57/185/50 58/186/50 56/187/50
f 56/188/51 58/189/51 42/190/51
f 43/191/52 57/192/52 41/193/52
f 57/194/53 43/195/53 44/196/53 58/197/53
f 58/198/54 44/199/54 42/200/54
o bottom
v 1 0 1
v 1 0.5 1
v 1.4142135623730951 0 2
v 1.4142135623730951 0.5 2
v 2 0 1.4142135623730951
v 2 0.5 1.4142135623730951
v 2 0 0.585786437626905
v 2 0.5 0.585786437626905
v 1.4142135623730951 0 0
v 1.4142135623730951 0.5 0
v 0.5857864376269051 0 -2.220446049250313e-16
v 0.5857864376269051 0.5 -2.220446049250313e-16
v 2.220446049250313e-16 0 0.5857864376269043
v 2.220446049250313e-16 0.5 0.5857864376269043
v 1.1102230246251565e-16 0 1.4142135623730954
v 1.1102230246251565e-16 0.5 1.4142135623730954
v 0.5857864376269042 0 1.9999999999999998
v 0.5857864376269042 0.5 1.9999999999999998
v 0.8075193885489359 0.5 2
v 0.8075193885489359 0 2
vt 0.59375 0.734375
vt 0.78125 0.734375
vt 0.6875 0.984375
vt 0.25 0.75
vt 0.46875 0.75
vt 0.46875 0.875
vt 0.25 0.875
vt 0 0.75
vt 0.21875 0.75
vt 0.109375 0.5
vt 0.59375 0.734375
vt 0.78125 0.734375
vt 0.6875 0.984375
vt 0.25 0.75
vt 0.46875 0.75
vt 0.46875 0.875
vt 0.25 0.875
vt 0 0.75
vt 0.21875 0.75
vt 0.109375 0.5
vt 0.59375 0.734375
vt 0.78125 0.734375
vt 0.6875 0.984375
vt 0.25 0.75
vt 0.46875 0.75
vt 0.46875 0.875
vt 0.25 0.875
vt 0 0.75
vt 0.21875 0.75
vt 0.109375 0.5
vt 0.59375 0.734375
vt 0.78125 0.734375
vt 0.6875 0.984375
vt 0.25 0.75
vt 0.46875 0.75
vt 0.46875 0.875
vt 0.25 0.875
vt 0 0.75
vt 0.21875 0.75
vt 0.109375 0.5
vt 0.59375 0.734375
vt 0.78125 0.734375
vt 0.6875 0.984375
vt 0.25 0.75
vt 0.46875 0.75
vt 0.46875 0.875
vt 0.25 0.875
vt 0 0.75
vt 0.21875 0.75
vt 0.109375 0.5
vt 0.59375 0.734375
vt 0.78125 0.734375
vt 0.6875 0.984375
vt 0.25 0.75
vt 0.46875 0.75
vt 0.46875 0.875
vt 0.25 0.875
vt 0 0.75
vt 0.21875 0.75
vt 0.109375 0.5
vt 0.59375 0.734375
vt 0.78125 0.734375
vt 0.6875 0.984375
vt 0.25 0.75
vt 0.46875 0.75
vt 0.46875 0.875
vt 0.25 0.875
vt 0 0.75
vt 0.21875 0.75
vt 0.109375 0.5
vt 0.59375 0.734375
vt 0.78125 0.734375
vt 0.6875 0.984375
vt 0 0.75
vt 0.21875 0.75
vt 0.109375 0.5
vt 0.46417343750000006 0.875
vt 0.31250000000000006 0.875
vt 0.31250000000000006 0.75
vt 0.46417343750000006 0.75
vn 0 -1 0
vn 0.7071067811865476 0 0.7071067811865476
vn 0 1 0
vn 0 -1 0
vn 1 0 0
vn 0 1 0
vn 0 -1 0
vn 0.7071067811865476 0 -0.7071067811865475
vn 0 1 0
vn 0 -1 0
vn 2.6803154833089315e-16 0 -1
vn 0 1 0
vn 0 -1 0
vn -0.7071067811865474 0 -0.7071067811865477
vn 0 1 0
vn 0 -1 0
vn -1 0 -1.3401577416544645e-16
vn 0 1 0
vn 0 -1 0
vn -0.7071067811865477 0 0.7071067811865474
vn 0 1 0
vn 0 -1 0
vn 0 1 0
vn 0 0 1
usemtl m_d6b796cc-2b2d-543f-0bd4-6755182cd1ad
f 63/201/55 61/202/55 59/203/55
f 61/204/56 63/205/56 64/206/56 62/207/56
f 62/208/57 64/209/57 60/210/57
f 65/211/58 63/212/58 59/213/58
f 63/214/59 65/215/59 66/216/59 64/217/59
f 64/218/60 66/219/60 60/220/60
f 67/221/61 65/222/61 59/223/61
f 65/224/62 67/225/62 68/226/62 66/227/62
f 66/228/63 68/229/63 60/230/63
f 69/231/64 67/232/64 59/233/64
f 67/234/65 69/235/65 70/236/65 68/237/65
f 68/238/66 70/239/66 60/240/66
f 71/241/67 69/242/67 59/243/67
f 69/244/68 71/245/68 72/246/68 70/247/68
f 70/248/69 72/249/69 60/250/69
f 73/251/70 71/252/70 59/253/70
f 71/254/71 73/255/71 74/256/71 72/257/71
f 72/258/72 74/259/72 60/260/72
f 75/261/73 73/262/73 59/263/73
f 73/264/74 75/265/74 76/266/74 74/267/74
f 74/268/75 76/269/75 60/270/75
f 61/271/76 75/272/76 59/273/76
f 76/274/77 62/275/77 60/276/77
f 62/277/78 77/278/78 78/279/78 61/280/78
o flux_port
v 0.8125 0.8125 2
v 0.8125 0.8125 1.625
v 0.8125 0.000625 2
v 0.8125 0.000625 1.625
v 0.1875 0.8125 2
v 0.1875 0.8125 1.625
v 0.1875 0.000625 2
v 0.1875 0.000625 1.625
vt 0.25 0.953125
vt 0.15625 0.953125
vt 0.15625 0.75
vt 0.25 0.75
vt 0.25 0.75
vt 0.25 0.953125
vt 0.15625 0.953125
vt 0.15625 0.75
vt 0.25 0.65625
vt 0.40625 0.65625
vt 0.40625 0.75
vt 0.25 0.75
vt 0.15625 0.75
vt 0.15625 0.953125
vt 0 0.953125
vt 0 0.75
vt 0.15625 0.953125
vt 0.3125 0.953125
vt 0.3125 0.75
vt 0.15625 0.75
vt 0.78125 0.8125
vt 0.78125 0.828125
vt 0.625 0.828125
vt 0.625 0.8125
vn 1 0 0
vn -1 0 0
vn 0 1 0
vn 0 0 1
vn 0 0 -1
vn 0 -1 0
usemtl m_d6b796cc-2b2d-543f-0bd4-6755182cd1ad
f 80/281/79 79/282/79 81/283/79 82/284/79
f 85/285/80 83/286/80 84/287/80 86/288/80
f 83/289/81 79/290/81 80/291/81 84/292/81
f 81/293/82 79/294/82 83/295/82 85/296/82
f 84/297/83 80/298/83 82/299/83 86/300/83
f 82/301/84 81/302/84 85/303/84 86/304/84
o item_port
v 0.874375 2 1.8750312500000001
v 0.874375 1.5 1.8750312500000001
v 0.125 2 1.875
v 0.125 2 1.1250625
v 0.125 1.5 1.875
v 0.125 1.5 1.1250625
v 0.874375 2 1.1250312500000001
v 0.874375 1.5 1.1250312500000001
vt 1 0.6875
vt 1 0.8125
vt 0.8125 0.8125
vt 0.8125 0.6875
vt 0.8125 0.8125
vt 1 0.8125
vt 1 1
vt 0.8125 1
vt 1 0.5
vt 1 0.6875
vt 0.8125 0.6875
vt 0.8125 0.5
vt 1 0.6875
vt 1 0.8125
vt 0.8125 0.8125
vt 0.8125 0.6875
vt 1 0.8125
vt 0.8125 0.8125
vt 0.8125 0.6875
vt 1 0.6875
vt 1 0.8125
vt 0.8125 0.8125
vt 0.8125 0.6875
vt 1 0.6875
vn -1 0 0
vn 0 1 0
vn 0 -1 0
vn -0.00004170141781199825 0 0.9999999991304959
vn -0.00004170141781192417 0 -0.9999999991304959
vn 1 0 0
usemtl m_d6b796cc-2b2d-543f-0bd4-6755182cd1ad
f 91/305/85 89/306/85 90/307/85 92/308/85
f 89/309/86 87/310/86 93/311/86 90/312/86
f 94/313/87 88/314/87 91/315/87 92/316/87
f 88/317/88 87/318/88 89/319/88 91/320/88
f 90/321/89 93/322/89 94/323/89 92/324/89
f 93/325/90 87/326/90 88/327/90 94/328/90