# Made in Blockbench 4.9.3
mtllib test_machine.mtl

o pillar1
v 1 2 3
v 1 2 2
v 1 -1 3
v 1 -1 2
v 0 2 2
v 0 2 3
v 0 -1 2
v 0 -1 3
vt 0 1
vt 0.3333333333333333 1
vt 0.3333333333333333 0.6666666666666667
vt 0 0.6666666666666667
vt 0 1
vt 0.25 1
vt 0.25 0.25
vt 0 0.25
vt 0 1
vt 0.25 1
vt 0.25 0.25
vt 0 0.25
vt 0 1
vt 0.25 1
vt 0.25 0.25
vt 0 0.25
vt 0.59375 1
vt 0.84375 1
vt 0.84375 0.75
vt 0.59375 0.75
vt 0 0.25
vt 0.25 0.25
vt 0.25 0
vt 0 0
vn 0 0 -1
vn 1 0 0
vn 0 0 1
vn -1 0 0
vn 0 1 0
vn 0 -1 0
usemtl none
f 4/4/1 7/3/1 5/2/1 2/1/1
usemtl m_8fac7e7f-acec-8a23-0957-9836776890b6
f 3/8/2 4/7/2 2/6/2 1/5/2
f 8/12/3 3/11/3 1/10/3 6/9/3
f 7/16/4 8/15/4 6/14/4 5/13/4
f 6/20/5 1/19/5 2/18/5 5/17/5
f 7/24/6 4/23/6 3/22/6 8/21/6
o pillar2
v 1 2 2
v 1 2 1
v 1 -1 2
v 1 -1 1
v 0 2 1
v 0 2 2
v 0 -1 1
v 0 -1 2
vt 0 1
vt 0.3333333333333333 1
vt 0.3333333333333333 0.6666666666666667
vt 0 0.6666666666666667
vt 0 1
vt 0.3333333333333333 1
vt 0.3333333333333333 0.6666666666666667
vt 0 0.6666666666666667
vt 0 1
vt 0.3333333333333333 1
vt 0.3333333333333333 0.6666666666666667
vt 0 0.6666666666666667
vt 0 1
vt 0.3333333333333333 1
vt 0.3333333333333333 0.6666666666666667
vt 0 0.6666666666666667
vt 0.59375 0.75
vt 0.84375 0.75
vt 0.84375 0.5
vt 0.59375 0.5
vt 0 0.25
vt 0.25 0.25
vt 0.25 0
vt 0 0
vn 0 0 -1
vn 1 0 0
vn 0 0 1
vn -1 0 0
vn 0 1 0
vn 0 -1 0
usemtl none
f 12/28/7 15/27/7 13/26/7 10/25/7
f 11/32/8 12/31/8 10/30/8 9/29/8
f 16/36/9 11/35/9 9/34/9 14/33/9
f 15/40/10 16/39/10 14/38/10 13/37/10
usemtl m_8fac7e7f-acec-8a23-0957-9836776890b6
f 14/44/11 9/43/11 10/42/11 13/41/11
f 15/48/12 12/47/12 11/46/12 16/45/12
o pillar4
v 2 2 2
v 2 2 1
v 2 -1 2
v 2 -1 1
v 1 2 1
v 1 2 2
v 1 -1 1
v 1 -1 2
vt 0 1
vt 0.25 1
vt 0.25 0.25
vt 0 0.25
vt 0 1
vt 0.25 1
vt 0.25 0.25
vt 0 0.25
vt 0 1
vt 0.25 1
vt 0.25 0.25
vt 0 0.25
vt 0 1
vt 0.25 1
vt 0.25 0.25
vt 0 0.25
vt 0.59375 1
vt 0.84375 1
vt 0.84375 0.75
vt 0.59375 0.75
vt 0 0.25
vt 0.25 0.25
vt 0.25 0
vt 0 0
vn 0 0 -1
vn 1 0 0
vn 0 0 1
vn -1 0 0
vn 0 1 0
vn 0 -1 0
usemtl m_8fac7e7f-acec-8a23-0957-9836776890b6
f 20/52/13 23/51/13 21/50/13 18/49/13
f 19/56/14 20/55/14 18/54/14 17/53/14
f 24/60/15 19/59/15 17/58/15 22/57/15
f 23/64/16 24/63/16 22/62/16 21/61/16
f 22/68/17 17/67/17 18/66/17 21/65/17
f 23/72/18 20/71/18 19/70/18 24/69/18
o pillar5
v 0 2 2
v 0 2 1
v 0 -1 2
v 0 -1 1
v -1 2 1
v -1 2 2
v -1 -1 1
v -1 -1 2
vt 0 1
vt 0.25 1
vt 0.25 0.25
vt 0 0.25
vt 0 1
vt 0.3333333333333333 1
vt 0.3333333333333333 0.6666666666666667
vt 0 0.6666666666666667
vt 0 1
vt 0.25 1
vt 0.25 0.25
vt 0 0.25
vt 0 1
vt 0.25 1
vt 0.25 0.25
vt 0 0.25
vt 0.59375 1
vt 0.84375 1
vt 0.84375 0.75
vt 0.59375 0.75
vt 0 0.25
vt 0.25 0.25
vt 0.25 0
vt 0 0
vn 0 0 -1
vn 1 0 0
vn 0 0 1
vn -1 0 0
vn 0 1 0
vn 0 -1 0
usemtl m_8fac7e7f-acec-8a23-0957-9836776890b6
f 28/76/19 31/75/19 29/74/19 26/73/19
usemtl none
f 27/80/20 28/79/20 26/78/20 25/77/20
usemtl m_8fac7e7f-acec-8a23-0957-9836776890b6
f 32/84/21 27/83/21 25/82/21 30/81/21
f 31/88/22 32/87/22 30/86/22 29/85/22
f 30/92/23 25/91/23 26/90/23 29/89/23
f 31/96/24 28/95/24 27/94/24 32/93/24
o front1
v 1 2 1
v 1 2 0
v 1 1 1
v 1 1 0
v 0 2 0
v 0 2 1
v 0 1 0
v 0 1 1
vt 0 1
vt 0.25 1
vt 0.25 0.75
vt 0 0.75
vt 0 1
vt 0.25 1
vt 0.25 0.75
vt 0 0.75
vt 0 1
vt 0.25 1
vt 0.25 0.75
vt 0 0.75
vt 0.59375 1
vt 0.84375 1
vt 0.84375 0.75
vt 0.59375 0.75
vn 0 0 -1
vn 1 0 0
vn -1 0 0
vn 0 1 0
usemtl m_8fac7e7f-acec-8a23-0957-9836776890b6
f 36/100/25 39/99/25 37/98/25 34/97/25
f 35/104/26 36/103/26 34/102/26 33/101/26
f 39/108/27 40/107/27 38/106/27 37/105/27
f 38/112/28 33/111/28 34/110/28 37/109/28
o front3
v 1 0 1
v 1 0 0
v 1 -1 1
v 1 -1 0
v 0 0 0
v 0 0 1
v 0 -1 0
v 0 -1 1
vt 0 0.5
vt 0.25 0.5
vt 0.25 0.25
vt 0 0.25
vt 0 0.5
vt 0.25 0.5
vt 0.25 0.25
vt 0 0.25
vt 0 0.5
vt 0.25 0.5
vt 0.25 0.25
vt 0 0.25
vt 0 0.25
vt 0.25 0.25
vt 0.25 0
vt 0 0
vn 0 0 -1
vn 1 0 0
vn -1 0 0
vn 0 -1 0
usemtl m_8fac7e7f-acec-8a23-0957-9836776890b6
f 44/116/29 47/115/29 45/114/29 42/113/29
f 43/120/30 44/119/30 42/118/30 41/117/30
f 47/124/31 48/123/31 46/122/31 45/121/31
f 47/128/32 44/127/32 43/126/32 48/125/32
o front2
v 1 1 1
v 1 1 0
v 1 0 1
v 1 0 0
v 0 1 0
v 0 1 1
v 0 0 0
v 0 0 1
vt 0.59375 0.5
vt 0.84375 0.5
vt 0.84375 0.25
vt 0.59375 0.25
vt 0 0.75
vt 0.25 0.75
vt 0.25 0.5
vt 0 0.5
vt 0 0.75
vt 0.25 0.75
vt 0.25 0.5
vt 0 0.5
vn 0 0 -1
vn 1 0 0
vn -1 0 0
usemtl m_8fac7e7f-acec-8a23-0957-9836776890b6
f 52/132/33 55/131/33 53/130/33 50/129/33
f 51/136/34 52/135/34 50/134/34 49/133/34
f 55/140/35 56/139/35 54/138/35 53/137/35
o cube1
v 1.958407736197254 -0.0625 1.0138640879342484
v 0.9861359120657514 -0.0625 0.04159226380274572
v 1.958407736197254 -0.9375 1.0138640879342484
v 0.9861359120657514 -0.9375 0.04159226380274572
v -0.9584077361972541 -0.0625 1.9861359120657518
v 0.013864087934248759 -0.0625 2.9584077361972545
v -0.9584077361972541 -0.9375 1.9861359120657518
v 0.013864087934248759 -0.9375 2.9584077361972545
vt 0 1
vt 0.3333333333333333 1
vt 0.3333333333333333 0.7083333333333333
vt 0 0.7083333333333333
vt 0.25 0.3125
vt 0.59375 0.3125
vt 0.59375 0.09375
vt 0.25 0.09375
vt 0 1
vt 0.3333333333333333 1
vt 0.3333333333333333 0.7083333333333333
vt 0 0.7083333333333333
vt 0.25 0.3125
vt 0.59375 0.3125
vt 0.59375 0.09375
vt 0.25 0.09375
vt 0.59375 1
vt 0.59375 0.3125
vt 0.25 0.3125
vt 0.25 1
vt 0.59375 1
vt 0.59375 0.3125
vt 0.25 0.3125
vt 0.25 1
vn -0.7071067811865476 0 -0.7071067811865475
vn 0.7071067811865475 0 -0.7071067811865476
vn 0.7071067811865476 0 0.7071067811865475
vn -0.7071067811865475 0 0.7071067811865476
vn 0 1 0
vn 0 -1 0
usemtl none
f 60/144/36 63/143/36 61/142/36 58/141/36
usemtl m_8fac7e7f-acec-8a23-0957-9836776890b6
f 59/148/37 60/147/37 58/146/37 57/145/37
usemtl none
f 64/152/38 59/151/38 57/150/38 62/149/38
usemtl m_8fac7e7f-acec-8a23-0957-9836776890b6
f 63/156/39 64/155/39 62/154/39 61/153/39
f 62/160/40 57/159/40 58/158/40 61/157/40
f 63/164/41 60/163/41 59/162/41 64/161/41
o thin1
v 1.8700193885489358 1.0625 1.102252435582567
v 0.8977475644174329 1.0625 0.1299806114510642
v 1.8700193885489358 0.9375 1.102252435582567
v 0.8977475644174329 0.9375 0.1299806114510642
v -0.8700193885489358 1.0625 1.897747564417433
v 0.10225243558256714 1.0625 2.870019388548936
v -0.8700193885489358 0.9375 1.897747564417433
v 0.10225243558256714 0.9375 2.870019388548936
vt 0 1
vt 0.3333333333333333 1
vt 0.3333333333333333 0.9583333333333334
vt 0 0.9583333333333334
vt 0.25 0.515625
vt 0.59375 0.515625
vt 0.59375 0.484375
vt 0.25 0.484375
vt 0 1
vt 0.3333333333333333 1
vt 0.3333333333333333 0.9583333333333334
vt 0 0.9583333333333334
vt 0.25 0.515625
vt 0.59375 0.515625
vt 0.59375 0.484375
vt 0.25 0.484375
vt 0 1
vt 0.3333333333333333 1
vt 0.3333333333333333 0.6666666666666667
vt 0 0.6666666666666667
vt 0 1
vt 0.3333333333333333 1
vt 0.3333333333333333 0.6666666666666667
vt 0 0.6666666666666667
vn -0.7071067811865476 0 -0.7071067811865475
vn 0.7071067811865475 0 -0.7071067811865476
vn 0.7071067811865476 0 0.7071067811865475
vn -0.7071067811865475 0 0.7071067811865476
vn 0 1 0
vn 0 -1 0
usemtl none
f 68/168/42 71/167/42 69/166/42 66/165/42
usemtl m_8fac7e7f-acec-8a23-0957-9836776890b6
f 67/172/43 68/171/43 66/170/43 65/169/43
usemtl none
f 72/176/44 67/175/44 65/174/44 70/173/44
usemtl m_8fac7e7f-acec-8a23-0957-9836776890b6
f 71/180/45 72/179/45 70/178/45 69/177/45
usemtl none
f 70/184/46 65/183/46 66/182/46 69/181/46
f 71/188/47 68/187/47 67/186/47 72/185/47
o thin2
v 1.8700193885489358 0.0625 1.102252435582567
v 0.8977475644174329 0.0625 0.1299806114510642
v 1.8700193885489358 -0.0625 1.102252435582567
v 0.8977475644174329 -0.0625 0.1299806114510642
v -0.8700193885489358 0.0625 1.897747564417433
v 0.10225243558256714 0.0625 2.870019388548936
v -0.8700193885489358 -0.0625 1.897747564417433
v 0.10225243558256714 -0.0625 2.870019388548936
vt 0 1
vt 0.3333333333333333 1
vt 0.3333333333333333 0.9583333333333334
vt 0 0.9583333333333334
vt 0.25 0.515625
vt 0.59375 0.515625
vt 0.59375 0.484375
vt 0.25 0.484375
vt 0 1
vt 0.3333333333333333 1
vt 0.3333333333333333 0.9583333333333334
vt 0 0.9583333333333334
vt 0.25 0.515625
vt 0.59375 0.515625
vt 0.59375 0.484375
vt 0.25 0.484375
vt 0 1
vt 0.3333333333333333 1
vt 0.3333333333333333 0.6666666666666667
vt 0 0.6666666666666667
vt 0 1
vt 0.3333333333333333 1
vt 0.3333333333333333 0.6666666666666667
vt 0 0.6666666666666667
vn -0.7071067811865476 0 -0.7071067811865475
vn 0.7071067811865475 0 -0.7071067811865476
vn 0.7071067811865476 0 0.7071067811865475
vn -0.7071067811865475 0 0.7071067811865476
vn 0 1 0
vn 0 -1 0
usemtl none
f 76/192/48 79/191/48 77/190/48 74/189/48
usemtl m_8fac7e7f-acec-8a23-0957-9836776890b6
f 75/196/49 76/195/49 74/194/49 73/193/49
usemtl none
f 80/200/50 75/199/50 73/198/50 78/197/50
usemtl m_8fac7e7f-acec-8a23-0957-9836776890b6
f 79/204/51 80/203/51 78/202/51 77/201/51
usemtl none
f 78/208/52 73/207/52 74/206/52 77/205/52
f 79/212/53 76/211/53 75/210/53 80/209/53
o cube3
v 1.958407736197254 1.9375 1.0138640879342484
v 0.9861359120657514 1.9375 0.04159226380274572
v 1.958407736197254 1.0625 1.0138640879342484
v 0.9861359120657514 1.0625 0.04159226380274572
v -0.9584077361972541 1.9375 1.9861359120657518
v 0.013864087934248759 1.9375 2.9584077361972545
v -0.9584077361972541 1.0625 1.9861359120657518
v 0.013864087934248759 1.0625 2.9584077361972545
vt 0 1
vt 0.3333333333333333 1
vt 0.3333333333333333 0.7083333333333333
vt 0 0.7083333333333333
vt 0.25 0.3125
vt 0.59375 0.3125
vt 0.59375 0.09375
vt 0.25 0.09375
vt 0 1
vt 0.3333333333333333 1
vt 0.3333333333333333 0.7083333333333333
vt 0 0.7083333333333333
vt 0.25 0.3125
vt 0.59375 0.3125
vt 0.59375 0.09375
vt 0.25 0.09375
vt 0.59375 1
vt 0.59375 0.3125
vt 0.25 0.3125
vt 0.25 1
vt 0.59375 1
vt 0.59375 0.3125
vt 0.25 0.3125
vt 0.25 1
vn -0.7071067811865476 0 -0.7071067811865475
vn 0.7071067811865475 0 -0.7071067811865476
vn 0.7071067811865476 0 0.7071067811865475
vn -0.7071067811865475 0 0.7071067811865476
vn 0 1 0
vn 0 -1 0
usemtl none
f 84/216/54 87/215/54 85/214/54 82/213/54
usemtl m_8fac7e7f-acec-8a23-0957-9836776890b6
f 83/220/55 84/219/55 82/218/55 81/217/55
usemtl none
f 88/224/56 83/223/56 81/222/56 86/221/56
usemtl m_8fac7e7f-acec-8a23-0957-9836776890b6
f 87/228/57 88/227/57 86/226/57 85/225/57
f 86/232/58 81/231/58 82/230/58 85/229/58
f 87/236/59 84/235/59 83/234/59 88/233/59
o cube2
v 1.958407736197254 0.9375 1.0138640879342484
v 0.9861359120657514 0.9375 0.04159226380274572
v 1.958407736197254 0.0625 1.0138640879342484
v 0.9861359120657514 0.0625 0.04159226380274572
v -0.9584077361972541 0.9375 1.9861359120657518
v 0.013864087934248759 0.9375 2.9584077361972545
v -0.9584077361972541 0.0625 1.9861359120657518
v 0.013864087934248759 0.0625 2.9584077361972545
vt 0 1
vt 0.3333333333333333 1
vt 0.3333333333333333 0.7083333333333333
vt 0 0.7083333333333333
vt 0.25 0.734375
vt 0.59375 0.734375
vt 0.59375 0.515625
vt 0.25 0.515625
vt 0 1
vt 0.3333333333333333 1
vt 0.3333333333333333 0.7083333333333333
vt 0 0.7083333333333333
vt 0.25 0.734375
vt 0.59375 0.734375
vt 0.59375 0.515625
vt 0.25 0.515625
vt 0.59375 1
vt 0.59375 0.3125
vt 0.25 0.3125
vt 0.25 1
vt 0.59375 1
vt 0.59375 0.3125
vt 0.25 0.3125
vt 0.25 1
vn -0.7071067811865476 0 -0.7071067811865475
vn 0.7071067811865475 0 -0.7071067811865476
vn 0.7071067811865476 0 0.7071067811865475
vn -0.7071067811865475 0 0.7071067811865476
vn 0 1 0
vn 0 -1 0
usemtl none
f 92/240/60 95/239/60 93/238/60 90/237/60
usemtl m_8fac7e7f-acec-8a23-0957-9836776890b6
f 91/244/61 92/243/61 90/242/61 89/241/61
usemtl none
f 96/248/62 91/247/62 89/246/62 94/245/62
usemtl m_8fac7e7f-acec-8a23-0957-9836776890b6
f 95/252/63 96/251/63 94/250/63 93/249/63
f 94/256/64 89/255/64 90/254/64 93/253/64
f 95/260/65 92/259/65 91/258/65 96/257/65
o cube4
v 0.05805826175840689 -0.0625 -0.002601910021414633
v -0.914213562373094 -0.0625 0.9696699141100862
v 0.05805826175840689 -0.9375 -0.002601910021414633
v -0.914213562373094 -0.9375 0.9696699141100862
v 1.0303300858899107 -0.0625 2.9142135623730914
v 2.0026019100214114 -0.0625 1.9419417382415904
v 1.0303300858899107 -0.9375 2.9142135623730914
v 2.0026019100214114 -0.9375 1.9419417382415904
vt 0 1
vt 0.3333333333333333 1
vt 0.3333333333333333 0.7083333333333333
vt 0 0.7083333333333333
vt 0.25 0.3125
vt 0.59375 0.3125
vt 0.59375 0.09375
vt 0.25 0.09375
vt 0 1
vt 0.3333333333333333 1
vt 0.3333333333333333 0.7083333333333333
vt 0 0.7083333333333333
vt 0.25 0.3125
vt 0.59375 0.3125
vt 0.59375 0.09375
vt 0.25 0.09375
vt 0.59375 1
vt 0.59375 0.3125
vt 0.25 0.3125
vt 0.25 1
vt 0.59375 1
vt 0.59375 0.3125
vt 0.25 0.3125
vt 0.25 1
vn -0.7071067811865476 0 0.7071067811865475
vn -0.7071067811865475 0 -0.7071067811865476
vn 0.7071067811865476 0 -0.7071067811865475
vn 0.7071067811865475 0 0.7071067811865476
vn 0 1 0
vn 0 -1 0
usemtl none
f 100/264/66 103/263/66 101/262/66 98/261/66
usemtl m_8fac7e7f-acec-8a23-0957-9836776890b6
f 99/268/67 100/267/67 98/266/67 97/265/67
usemtl none
f 104/272/68 99/271/68 97/270/68 102/269/68
usemtl m_8fac7e7f-acec-8a23-0957-9836776890b6
f 103/276/69 104/275/69 102/274/69 101/273/69
f 102/280/70 97/279/70 98/278/70 101/277/70
f 103/284/71 100/283/71 99/282/71 104/281/71
o thin3
v 0.10225243558256636 1.0625 0.12998061145106332
v -0.8700193885489347 1.0625 1.1022524355825642
v 0.10225243558256636 0.9375 0.12998061145106332
v -0.8700193885489347 0.9375 1.1022524355825642
v 0.8977475644174333 1.0625 2.8700193885489327
v 1.8700193885489345 1.0625 1.8977475644174318
v 0.8977475644174333 0.9375 2.8700193885489327
v 1.8700193885489345 0.9375 1.8977475644174318
vt 0 1
vt 0.3333333333333333 1
vt 0.3333333333333333 0.9583333333333334
vt 0 0.9583333333333334
vt 0.25 0.515625
vt 0.59375 0.515625
vt 0.59375 0.484375
vt 0.25 0.484375
vt 0 1
vt 0.3333333333333333 1
vt 0.3333333333333333 0.9583333333333334
vt 0 0.9583333333333334
vt 0.25 0.515625
vt 0.59375 0.515625
vt 0.59375 0.484375
vt 0.25 0.484375
vt 0 1
vt 0.3333333333333333 1
vt 0.3333333333333333 0.6666666666666667
vt 0 0.6666666666666667
vt 0 1
vt 0.3333333333333333 1
vt 0.3333333333333333 0.6666666666666667
vt 0 0.6666666666666667
vn -0.7071067811865476 0 0.7071067811865475
vn -0.7071067811865475 0 -0.7071067811865476
vn 0.7071067811865476 0 -0.7071067811865475
vn 0.7071067811865475 0 0.7071067811865476
vn 0 1 0
vn 0 -1 0
usemtl none
f 108/288/72 111/287/72 109/286/72 106/285/72
usemtl m_8fac7e7f-acec-8a23-0957-9836776890b6
f 107/292/73 108/291/73 106/290/73 105/289/73
usemtl none
f 112/296/74 107/295/74 105/294/74 110/293/74
usemtl m_8fac7e7f-acec-8a23-0957-9836776890b6
f 111/300/75 112/299/75 110/298/75 109/297/75
usemtl none
f 110/304/76 105/303/76 106/302/76 109/301/76
f 111/308/77 108/307/77 107/306/77 112/305/77
o thin4
v 0.10225243558256636 0.0625 0.12998061145106332
v -0.8700193885489347 0.0625 1.1022524355825642
v 0.10225243558256636 -0.0625 0.12998061145106332
v -0.8700193885489347 -0.0625 1.1022524355825642
v 0.8977475644174333 0.0625 2.8700193885489327
v 1.8700193885489345 0.0625 1.8977475644174318
v 0.8977475644174333 -0.0625 2.8700193885489327
v 1.8700193885489345 -0.0625 1.8977475644174318
vt 0 1
vt 0.3333333333333333 1
vt 0.3333333333333333 0.9583333333333334
vt 0 0.9583333333333334
vt 0.25 0.515625
vt 0.59375 0.515625
vt 0.59375 0.484375
vt 0.25 0.484375
vt 0 1
vt 0.3333333333333333 1
vt 0.3333333333333333 0.9583333333333334
vt 0 0.9583333333333334
vt 0.25 0.515625
vt 0.59375 0.515625
vt 0.59375 0.484375
vt 0.25 0.484375
vt 0 1
vt 0.3333333333333333 1
vt 0.3333333333333333 0.6666666666666667
vt 0 0.6666666666666667
vt 0 1
vt 0.3333333333333333 1
vt 0.3333333333333333 0.6666666666666667
vt 0 0.6666666666666667
vn -0.7071067811865476 0 0.7071067811865475
vn -0.7071067811865475 0 -0.7071067811865476
vn 0.7071067811865476 0 -0.7071067811865475
vn 0.7071067811865475 0 0.7071067811865476
vn 0 1 0
vn 0 -1 0
usemtl none
f 116/312/78 119/311/78 117/310/78 114/309/78
usemtl m_8fac7e7f-acec-8a23-0957-9836776890b6
f 115/316/79 116/315/79 114/314/79 113/313/79
usemtl none
f 120/320/80 115/319/80 113/318/80 118/317/80
usemtl m_8fac7e7f-acec-8a23-0957-9836776890b6
f 119/324/81 120/323/81 118/322/81 117/321/81
usemtl none
f 118/328/82 113/327/82 114/326/82 117/325/82
f 119/332/83 116/331/83 115/330/83 120/329/83
o cube6
v 0.013864087934247538 1.9375 0.0415922638027445
v -0.9584077361972534 1.9375 1.0138640879342455
v 0.013864087934247538 1.0625 0.0415922638027445
v -0.9584077361972534 1.0625 1.0138640879342455
v 0.9861359120657514 1.9375 2.958407736197251
v 1.9584077361972523 1.9375 1.98613591206575
v 0.9861359120657514 1.0625 2.958407736197251
v 1.9584077361972523 1.0625 1.98613591206575
vt 0 1
vt 0.3333333333333333 1
vt 0.3333333333333333 0.7083333333333333
vt 0 0.7083333333333333
vt 0.25 0.3125
vt 0.59375 0.3125
vt 0.59375 0.09375
vt 0.25 0.09375
vt 0 1
vt 0.3333333333333333 1
vt 0.3333333333333333 0.7083333333333333
vt 0 0.7083333333333333
vt 0.25 0.3125
vt 0.59375 0.3125
vt 0.59375 0.09375
vt 0.25 0.09375
vt 0.59375 1
vt 0.59375 0.3125
vt 0.25 0.3125
vt 0.25 1
vt 0.59375 1
vt 0.59375 0.3125
vt 0.25 0.3125
vt 0.25 1
vn -0.7071067811865476 0 0.7071067811865475
vn -0.7071067811865475 0 -0.7071067811865476
vn 0.7071067811865476 0 -0.7071067811865475
vn 0.7071067811865475 0 0.7071067811865476
vn 0 1 0
vn 0 -1 0
usemtl none
f 124/336/84 127/335/84 125/334/84 122/333/84
usemtl m_8fac7e7f-acec-8a23-0957-9836776890b6
f 123/340/85 124/339/85 122/338/85 121/337/85
usemtl none
f 128/344/86 123/343/86 121/342/86 126/341/86
usemtl m_8fac7e7f-acec-8a23-0957-9836776890b6
f 127/348/87 128/347/87 126/346/87 125/345/87
f 126/352/88 121/351/88 122/350/88 125/349/88
f 127/356/89 124/355/89 123/354/89 128/353/89
o cube5
v 0.013864087934247538 0.9375 0.0415922638027445
v -0.9584077361972534 0.9375 1.0138640879342455
v 0.013864087934247538 0.0625 0.0415922638027445
v -0.9584077361972534 0.0625 1.0138640879342455
v 0.9861359120657514 0.9375 2.958407736197251
v 1.9584077361972523 0.9375 1.98613591206575
v 0.9861359120657514 0.0625 2.958407736197251
v 1.9584077361972523 0.0625 1.98613591206575
vt 0 1
vt 0.3333333333333333 1
vt 0.3333333333333333 0.7083333333333333
vt 0 0.7083333333333333
vt 0.25 0.734375
vt 0.59375 0.734375
vt 0.59375 0.515625
vt 0.25 0.515625
vt 0 1
vt 0.3333333333333333 1
vt 0.3333333333333333 0.7083333333333333
vt 0 0.7083333333333333
vt 0.25 0.734375
vt 0.59375 0.734375
vt 0.59375 0.515625
vt 0.25 0.515625
vt 0.59375 1
vt 0.59375 0.3125
vt 0.25 0.3125
vt 0.25 1
vt 0.59375 1
vt 0.59375 0.3125
vt 0.25 0.3125
vt 0.25 1
vn -0.7071067811865476 0 0.7071067811865475
vn -0.7071067811865475 0 -0.7071067811865476
vn 0.7071067811865476 0 -0.7071067811865475
vn 0.7071067811865475 0 0.7071067811865476
vn 0 1 0
vn 0 -1 0
usemtl none
f 132/360/90 135/359/90 133/358/90 130/357/90
usemtl m_8fac7e7f-acec-8a23-0957-9836776890b6
f 131/364/91 132/363/91 130/362/91 129/361/91
usemtl none
f 136/368/92 131/367/92 129/366/92 134/365/92
usemtl m_8fac7e7f-acec-8a23-0957-9836776890b6
f 135/372/93 136/371/93 134/370/93 133/369/93
f 134/376/94 129/375/94 130/374/94 133/373/94
f 135/380/95 132/379/95 131/378/95 136/377/95